solid CATIA STL
  facet normal -9.999999e-01  -0.000000e+00  -0.000000e+00
    outer loop
      vertex  0.000000e+00 -1.786965e-02 -1.250000e-02
      vertex  0.000000e+00 -1.751847e-02 -1.250000e-02
      vertex  0.000000e+00 -7.781465e-03 -2.000000e-02
    endloop
  endfacet
  facet normal -9.999999e-01 -1.227444e-16 -1.651024e-16
    outer loop
      vertex  0.000000e+00 -1.786965e-02 -1.250000e-02
      vertex  0.000000e+00 -7.781465e-03 -2.000000e-02
      vertex  3.552714e-18 -3.000000e-02 -2.500000e-02
    endloop
  endfacet
  facet normal -1.000000e+00 -2.928780e-16  0.000000e+00
    outer loop
      vertex  0.000000e+00 -1.786965e-02 -1.250000e-02
      vertex  3.552714e-18 -3.000000e-02 -2.500000e-02
      vertex  3.552714e-18 -3.000000e-02 -1.643300e-02
    endloop
  endfacet
  facet normal -1.000000e+00 -2.750830e-16 -5.488406e-17
    outer loop
      vertex  0.000000e+00 -1.786965e-02 -1.250000e-02
      vertex  3.552714e-18 -3.000000e-02 -1.643300e-02
      vertex  0.000000e+00 -2.027384e-02 -4.500000e-04
    endloop
  endfacet
  facet normal -1.000000e+00  0.000000e+00  0.000000e+00
    outer loop
      vertex  0.000000e+00 -1.786965e-02 -1.250000e-02
      vertex  0.000000e+00 -2.027384e-02 -4.500000e-04
      vertex  0.000000e+00 -1.053684e-02 -4.500000e-04
    endloop
  endfacet
  facet normal -9.999999e-01  0.000000e+00  0.000000e+00
    outer loop
      vertex  0.000000e+00  1.465388e-03 -7.500000e-03
      vertex  0.000000e+00 -3.671140e-03 -1.594086e-02
      vertex  0.000000e+00 -9.747760e-05 -4.500000e-04
    endloop
  endfacet
  facet normal -1.000000e+00  0.000000e+00  0.000000e+00
    outer loop
      vertex  0.000000e+00 -9.747760e-05 -4.500000e-04
      vertex  0.000000e+00 -3.671140e-03 -1.594086e-02
      vertex  0.000000e+00 -7.430284e-03 -1.970000e-02
    endloop
  endfacet
  facet normal -9.999999e-01  0.000000e+00  0.000000e+00
    outer loop
      vertex  0.000000e+00 -9.747760e-05 -4.500000e-04
      vertex  0.000000e+00 -7.430284e-03 -1.970000e-02
      vertex  0.000000e+00 -7.430284e-03 -1.250000e-02
    endloop
  endfacet
  facet normal -9.999999e-01  0.000000e+00  0.000000e+00
    outer loop
      vertex  0.000000e+00  1.250054e-02 -2.000000e-02
      vertex  0.000000e+00  1.250054e-02 -1.387230e-02
      vertex  0.000000e+00  1.751847e-02 -1.250000e-02
    endloop
  endfacet
  facet normal -1.000000e+00  -0.000000e+00  0.000000e+00
    outer loop
      vertex  0.000000e+00  1.751847e-02 -1.250000e-02
      vertex  0.000000e+00  1.250054e-02 -1.387230e-02
      vertex  0.000000e+00  8.622793e-03 -7.500000e-03
    endloop
  endfacet
  facet normal -1.000000e+00  0.000000e+00  0.000000e+00
    outer loop
      vertex  0.000000e+00  1.751847e-02 -1.250000e-02
      vertex  0.000000e+00  8.622793e-03 -7.500000e-03
      vertex  0.000000e+00  1.018566e-02 -4.500000e-04
    endloop
  endfacet
  facet normal -1.000000e+00  0.000000e+00  0.000000e+00
    outer loop
      vertex  0.000000e+00  1.018566e-02 -4.500000e-04
      vertex  0.000000e+00  8.622793e-03 -7.500000e-03
      vertex  0.000000e+00  1.465388e-03 -7.500000e-03
    endloop
  endfacet
  facet normal -1.000000e+00  0.000000e+00  0.000000e+00
    outer loop
      vertex  0.000000e+00  1.018566e-02 -4.500000e-04
      vertex  0.000000e+00  1.465388e-03 -7.500000e-03
      vertex  0.000000e+00 -9.747760e-05 -4.500000e-04
    endloop
  endfacet
  facet normal -1.000000e+00  0.000000e+00  0.000000e+00
    outer loop
      vertex  0.000000e+00 -4.486584e-04 -4.500000e-04
      vertex  0.000000e+00 -7.781465e-03 -1.250000e-02
      vertex  0.000000e+00 -1.018566e-02 -4.500000e-04
    endloop
  endfacet
  facet normal -1.000000e+00  0.000000e+00  0.000000e+00
    outer loop
      vertex  0.000000e+00 -1.018566e-02 -4.500000e-04
      vertex  0.000000e+00 -7.781465e-03 -1.250000e-02
      vertex  0.000000e+00 -7.781465e-03 -2.000000e-02
    endloop
  endfacet
  facet normal -1.000000e+00  0.000000e+00  0.000000e+00
    outer loop
      vertex  0.000000e+00 -1.018566e-02 -4.500000e-04
      vertex  0.000000e+00 -7.781465e-03 -2.000000e-02
      vertex  0.000000e+00 -1.751847e-02 -1.250000e-02
    endloop
  endfacet
  facet normal -1.000000e+00  -0.000000e+00 -7.105427e-16
    outer loop
      vertex  0.000000e+00 -7.781465e-03 -2.000000e-02
      vertex  0.000000e+00  1.250054e-02 -2.000000e-02
      vertex  3.552714e-18 -3.000000e-02 -2.500000e-02
    endloop
  endfacet
  facet normal -1.000000e+00  0.000000e+00 -7.105427e-16
    outer loop
      vertex  3.552714e-18 -3.000000e-02 -2.500000e-02
      vertex  0.000000e+00  1.250054e-02 -2.000000e-02
      vertex  3.552714e-18  3.000000e-02 -2.500000e-02
    endloop
  endfacet
  facet normal -1.000000e+00  1.704368e-16 -1.140320e-16
    outer loop
      vertex  0.000000e+00  1.250054e-02 -2.000000e-02
      vertex  0.000000e+00  1.751847e-02 -1.250000e-02
      vertex  3.552714e-18  3.000000e-02 -2.500000e-02
    endloop
  endfacet
  facet normal -9.999999e-01  0.000000e+00 -2.842176e-16
    outer loop
      vertex  3.552714e-18  3.000000e-02 -2.500000e-02
      vertex  0.000000e+00  1.751847e-02 -1.250000e-02
      vertex  0.000000e+00  1.786965e-02 -1.250000e-02
    endloop
  endfacet
  facet normal -1.000000e+00  -0.000000e+00  0.000000e+00
    outer loop
      vertex  0.000000e+00  1.053684e-02 -4.500000e-04
      vertex  0.000000e+00  2.027384e-02 -4.500000e-04
      vertex  0.000000e+00  1.786965e-02 -1.250000e-02
    endloop
  endfacet
  facet normal -1.000000e+00  2.750830e-16 -5.488406e-17
    outer loop
      vertex  0.000000e+00  1.786965e-02 -1.250000e-02
      vertex  0.000000e+00  2.027384e-02 -4.500000e-04
      vertex  3.552714e-18  3.000000e-02 -1.643300e-02
    endloop
  endfacet
  facet normal -1.000000e+00  2.928780e-16  0.000000e+00
    outer loop
      vertex  0.000000e+00  1.786965e-02 -1.250000e-02
      vertex  3.552714e-18  3.000000e-02 -1.643300e-02
      vertex  3.552714e-18  3.000000e-02 -2.500000e-02
    endloop
  endfacet
endsolid CATIA STL
