solid CATIA STL
  facet normal  0.000000e+00  0.000000e+00  1.000000e+00
    outer loop
      vertex  8.881785e-18  3.000000e-02 -2.500000e-02
      vertex  0.000000e+00 -3.000000e-02 -2.500000e-02
      vertex  2.599000e-02  3.000000e-02 -2.500000e-02
    endloop
  endfacet
  facet normal  0.000000e+00  0.000000e+00  1.000000e+00
    outer loop
      vertex  2.599000e-02  3.000000e-02 -2.500000e-02
      vertex  0.000000e+00 -3.000000e-02 -2.500000e-02
      vertex  2.599000e-02 -3.000000e-02 -2.500000e-02
    endloop
  endfacet
endsolid CATIA STL
