solid CATIA STL
  facet normal -1.000000e+00  0.000000e+00  0.000000e+00
    outer loop
      vertex  0.000000e+00  2.027384e-02 -4.500000e-04
      vertex  0.000000e+00  1.053684e-02 -4.500000e-04
      vertex  0.000000e+00  2.000000e-02 -8.881785e-19
    endloop
  endfacet
  facet normal -1.000000e+00  0.000000e+00  0.000000e+00
    outer loop
      vertex  0.000000e+00  1.018566e-02 -4.500000e-04
      vertex  0.000000e+00 -9.747760e-05 -4.500000e-04
      vertex  0.000000e+00  2.000000e-02 -8.881785e-19
    endloop
  endfacet
  facet normal -1.000000e+00  0.000000e+00  0.000000e+00
    outer loop
      vertex  0.000000e+00  1.018566e-02 -4.500000e-04
      vertex  0.000000e+00  2.000000e-02 -8.881785e-19
      vertex  0.000000e+00  1.053684e-02 -4.500000e-04
    endloop
  endfacet
  facet normal -1.000000e+00  -0.000000e+00  -0.000000e+00
    outer loop
      vertex  0.000000e+00  1.018566e-02 -4.500000e-04
      vertex  0.000000e+00  1.053684e-02 -4.500000e-04
      vertex  0.000000e+00  1.786965e-02 -1.250000e-02
    endloop
  endfacet
  facet normal -1.000000e+00  0.000000e+00  0.000000e+00
    outer loop
      vertex  0.000000e+00  1.018566e-02 -4.500000e-04
      vertex  0.000000e+00  1.786965e-02 -1.250000e-02
      vertex  0.000000e+00  1.751847e-02 -1.250000e-02
    endloop
  endfacet
  facet normal -9.999999e-01  0.000000e+00  0.000000e+00
    outer loop
      vertex  0.000000e+00  1.250054e-02 -2.000000e-02
      vertex  0.000000e+00 -7.781465e-03 -2.000000e-02
      vertex  0.000000e+00 -7.430284e-03 -1.970000e-02
    endloop
  endfacet
  facet normal -1.000000e+00  0.000000e+00  0.000000e+00
    outer loop
      vertex  0.000000e+00  1.250054e-02 -2.000000e-02
      vertex  0.000000e+00 -7.430284e-03 -1.970000e-02
      vertex  0.000000e+00 -3.671140e-03 -1.594086e-02
    endloop
  endfacet
  facet normal -1.000000e+00  0.000000e+00  0.000000e+00
    outer loop
      vertex  0.000000e+00  1.250054e-02 -2.000000e-02
      vertex  0.000000e+00 -3.671140e-03 -1.594086e-02
      vertex  0.000000e+00  1.465388e-03 -7.500000e-03
    endloop
  endfacet
  facet normal -9.999999e-01  0.000000e+00  0.000000e+00
    outer loop
      vertex  0.000000e+00  1.250054e-02 -2.000000e-02
      vertex  0.000000e+00  1.465388e-03 -7.500000e-03
      vertex  0.000000e+00  8.622793e-03 -7.500000e-03
    endloop
  endfacet
  facet normal -1.000000e+00  0.000000e+00  0.000000e+00
    outer loop
      vertex  0.000000e+00  1.250054e-02 -2.000000e-02
      vertex  0.000000e+00  8.622793e-03 -7.500000e-03
      vertex  0.000000e+00  1.250054e-02 -1.387230e-02
    endloop
  endfacet
  facet normal -1.000000e+00  -0.000000e+00  0.000000e+00
    outer loop
      vertex  0.000000e+00 -2.000000e-02  0.000000e+00
      vertex  0.000000e+00  2.000000e-02 -8.881785e-19
      vertex  0.000000e+00 -9.747760e-05 -4.500000e-04
    endloop
  endfacet
  facet normal -1.000000e+00  0.000000e+00  0.000000e+00
    outer loop
      vertex  0.000000e+00 -2.000000e-02  0.000000e+00
      vertex  0.000000e+00 -9.747760e-05 -4.500000e-04
      vertex  0.000000e+00 -4.486584e-04 -4.500000e-04
    endloop
  endfacet
  facet normal -1.000000e+00  0.000000e+00  0.000000e+00
    outer loop
      vertex  0.000000e+00 -2.000000e-02  0.000000e+00
      vertex  0.000000e+00 -4.486584e-04 -4.500000e-04
      vertex  0.000000e+00 -1.018566e-02 -4.500000e-04
    endloop
  endfacet
  facet normal -1.000000e+00  0.000000e+00  0.000000e+00
    outer loop
      vertex  0.000000e+00 -2.000000e-02  0.000000e+00
      vertex  0.000000e+00 -1.018566e-02 -4.500000e-04
      vertex  0.000000e+00 -1.053684e-02 -4.500000e-04
    endloop
  endfacet
  facet normal -1.000000e+00  0.000000e+00  0.000000e+00
    outer loop
      vertex  0.000000e+00 -2.000000e-02  0.000000e+00
      vertex  0.000000e+00 -1.053684e-02 -4.500000e-04
      vertex  0.000000e+00 -2.027384e-02 -4.500000e-04
    endloop
  endfacet
  facet normal -9.999999e-01  0.000000e+00  0.000000e+00
    outer loop
      vertex  0.000000e+00 -7.781465e-03 -2.000000e-02
      vertex  0.000000e+00 -7.781465e-03 -1.250000e-02
      vertex  0.000000e+00 -7.430284e-03 -1.970000e-02
    endloop
  endfacet
  facet normal -1.000000e+00  0.000000e+00  0.000000e+00
    outer loop
      vertex  0.000000e+00 -7.430284e-03 -1.970000e-02
      vertex  0.000000e+00 -7.781465e-03 -1.250000e-02
      vertex  0.000000e+00 -7.430284e-03 -1.250000e-02
    endloop
  endfacet
  facet normal -1.000000e+00  0.000000e+00  0.000000e+00
    outer loop
      vertex  0.000000e+00 -7.781465e-03 -1.250000e-02
      vertex  0.000000e+00 -4.486584e-04 -4.500000e-04
      vertex  0.000000e+00 -7.430284e-03 -1.250000e-02
    endloop
  endfacet
  facet normal -1.000000e+00  0.000000e+00  0.000000e+00
    outer loop
      vertex  0.000000e+00 -7.430284e-03 -1.250000e-02
      vertex  0.000000e+00 -4.486584e-04 -4.500000e-04
      vertex  0.000000e+00 -9.747760e-05 -4.500000e-04
    endloop
  endfacet
  facet normal -1.000000e+00  0.000000e+00  0.000000e+00
    outer loop
      vertex  0.000000e+00 -1.751847e-02 -1.250000e-02
      vertex  0.000000e+00 -1.786965e-02 -1.250000e-02
      vertex  0.000000e+00 -1.018566e-02 -4.500000e-04
    endloop
  endfacet
  facet normal -1.000000e+00  -0.000000e+00  0.000000e+00
    outer loop
      vertex  0.000000e+00 -1.018566e-02 -4.500000e-04
      vertex  0.000000e+00 -1.786965e-02 -1.250000e-02
      vertex  0.000000e+00 -1.053684e-02 -4.500000e-04
    endloop
  endfacet
endsolid CATIA STL
