solid module_holder_interface
  facet normal  0.000000e+00  0.000000e+00 -1.000000e+00
    outer loop
      vertex  2.599000e-02  3.000000e-02 -2.500000e-02
      vertex  2.599000e-02 -3.000000e-02 -2.500000e-02
      vertex  3.552714e-18  3.000000e-02 -2.500000e-02
    endloop
  endfacet
  facet normal  0.000000e+00  0.000000e+00 -1.000000e+00
    outer loop
      vertex  3.552714e-18  3.000000e-02 -2.500000e-02
      vertex  2.599000e-02 -3.000000e-02 -2.500000e-02
      vertex  3.552714e-18 -3.000000e-02 -2.500000e-02
    endloop
  endfacet
endsolid module_holder_interface

solid module_lm_interface
  facet normal -5.113062e-09 -8.542607e-01 -5.198447e-01
    outer loop
      vertex  3.030000e-03  1.053684e-02 -4.500001e-04
      vertex  0.000000e+00  1.053684e-02 -4.500000e-04
      vertex  3.030000e-03  1.786965e-02 -1.250000e-02
    endloop
  endfacet
  facet normal  -0.000000e+00 -8.542607e-01 -5.198447e-01
    outer loop
      vertex  3.030000e-03  1.786965e-02 -1.250000e-02
      vertex  0.000000e+00  1.053684e-02 -4.500000e-04
      vertex  0.000000e+00  1.786965e-02 -1.250000e-02
    endloop
  endfacet
  facet normal  0.000000e+00 -8.542607e-01 -5.198447e-01
    outer loop
      vertex  9.690000e-03  1.053684e-02 -4.500001e-04
      vertex  3.330000e-03  1.053684e-02 -4.500001e-04
      vertex  9.690000e-03  1.786965e-02 -1.250000e-02
    endloop
  endfacet
  facet normal  -0.000000e+00 -8.542607e-01 -5.198447e-01
    outer loop
      vertex  9.690000e-03  1.786965e-02 -1.250000e-02
      vertex  3.330000e-03  1.053684e-02 -4.500001e-04
      vertex  3.330000e-03  1.786965e-02 -1.250000e-02
    endloop
  endfacet
  facet normal  1.936572e-09 -8.542607e-01 -5.198447e-01
    outer loop
      vertex  1.799000e-02  1.053684e-02 -4.500000e-04
      vertex  9.990000e-03  1.053684e-02 -4.500001e-04
      vertex  1.799000e-02  1.786965e-02 -1.250000e-02
    endloop
  endfacet
  facet normal  -0.000000e+00 -8.542607e-01 -5.198447e-01
    outer loop
      vertex  1.799000e-02  1.786965e-02 -1.250000e-02
      vertex  9.990000e-03  1.053684e-02 -4.500001e-04
      vertex  9.990000e-03  1.786965e-02 -1.250000e-02
    endloop
  endfacet
  facet normal  9.119147e-10 -8.542607e-01  5.198447e-01
    outer loop
      vertex  3.030000e-03 -9.747761e-05 -4.500001e-04
      vertex  0.000000e+00 -9.747760e-05 -4.500000e-04
      vertex  3.030000e-03 -7.430284e-03 -1.250000e-02
    endloop
  endfacet
  facet normal  0.000000e+00 -8.542607e-01  5.198447e-01
    outer loop
      vertex  3.030000e-03 -7.430284e-03 -1.250000e-02
      vertex  0.000000e+00 -9.747760e-05 -4.500000e-04
      vertex  0.000000e+00 -7.430284e-03 -1.250000e-02
    endloop
  endfacet
  facet normal  1.000745e-09 -8.542609e-01  5.198447e-01
    outer loop
      vertex  9.690000e-03 -9.747761e-05 -4.500001e-04
      vertex  3.330000e-03 -9.747762e-05 -4.500001e-04
      vertex  9.690000e-03 -7.430284e-03 -1.250000e-02
    endloop
  endfacet
  facet normal  0.000000e+00 -8.542609e-01  5.198447e-01
    outer loop
      vertex  9.690000e-03 -7.430284e-03 -1.250000e-02
      vertex  3.330000e-03 -9.747762e-05 -4.500001e-04
      vertex  3.330000e-03 -7.430284e-03 -1.250000e-02
    endloop
  endfacet
  facet normal  0.000000e+00 -8.542607e-01  5.198447e-01
    outer loop
      vertex  1.799000e-02 -9.747760e-05 -4.500000e-04
      vertex  9.990000e-03 -9.747760e-05 -4.500000e-04
      vertex  1.799000e-02 -7.430284e-03 -1.250000e-02
    endloop
  endfacet
  facet normal  0.000000e+00 -8.542607e-01  5.198447e-01
    outer loop
      vertex  1.799000e-02 -7.430284e-03 -1.250000e-02
      vertex  9.990000e-03 -9.747760e-05 -4.500000e-04
      vertex  9.990000e-03 -7.430284e-03 -1.250000e-02
    endloop
  endfacet
  facet normal  0.000000e+00 -8.542607e-01  5.198447e-01
    outer loop
      vertex  3.030000e-03 -1.018566e-02 -4.500000e-04
      vertex  0.000000e+00 -1.018566e-02 -4.500000e-04
      vertex  3.030000e-03 -1.751847e-02 -1.250000e-02
    endloop
  endfacet
  facet normal  0.000000e+00 -8.542607e-01  5.198447e-01
    outer loop
      vertex  3.030000e-03 -1.751847e-02 -1.250000e-02
      vertex  0.000000e+00 -1.018566e-02 -4.500000e-04
      vertex  0.000000e+00 -1.751847e-02 -1.250000e-02
    endloop
  endfacet
  facet normal  0.000000e+00 -8.542607e-01  5.198447e-01
    outer loop
      vertex  1.799000e-02 -1.018566e-02 -4.500000e-04
      vertex  9.990000e-03 -1.018566e-02 -4.500000e-04
      vertex  1.799000e-02 -1.751847e-02 -1.250000e-02
    endloop
  endfacet
  facet normal  0.000000e+00 -8.542607e-01  5.198447e-01
    outer loop
      vertex  1.799000e-02 -1.751847e-02 -1.250000e-02
      vertex  9.990000e-03 -1.018566e-02 -4.500000e-04
      vertex  9.990000e-03 -1.751847e-02 -1.250000e-02
    endloop
  endfacet
  facet normal -1.000000e+00  0.000000e+00  0.000000e+00
    outer loop
      vertex  9.990000e-03  1.018566e-02 -4.500000e-04
      vertex  9.990000e-03  1.751847e-02 -1.250000e-02
      vertex  9.990000e-03  1.166545e-02 -1.250000e-02
    endloop
  endfacet
  facet normal -1.000000e+00  0.000000e+00  0.000000e+00
    outer loop
      vertex  9.990000e-03 -7.430284e-03 -1.250000e-02
      vertex  9.990000e-03 -9.747760e-05 -4.500000e-04
      vertex  9.990000e-03 -1.577270e-03 -1.250000e-02
    endloop
  endfacet
  facet normal -9.999999e-01  0.000000e+00  0.000000e+00
    outer loop
      vertex  9.990000e-03  1.250054e-02 -2.000000e-02
      vertex  9.990000e-03 -7.781465e-03 -2.000000e-02
      vertex  9.990000e-03 -7.430284e-03 -1.970000e-02
    endloop
  endfacet
  facet normal -1.000000e+00  0.000000e+00  0.000000e+00
    outer loop
      vertex  9.990000e-03  1.250054e-02 -2.000000e-02
      vertex  9.990000e-03 -7.430284e-03 -1.970000e-02
      vertex  9.990000e-03 -3.671140e-03 -1.594086e-02
    endloop
  endfacet
  facet normal -1.000000e+00  0.000000e+00  0.000000e+00
    outer loop
      vertex  9.990000e-03  1.250054e-02 -2.000000e-02
      vertex  9.990000e-03 -3.671140e-03 -1.594086e-02
      vertex  9.990000e-03 -1.577270e-03 -1.250000e-02
    endloop
  endfacet
  facet normal -1.000000e+00  0.000000e+00  0.000000e+00
    outer loop
      vertex  9.990000e-03  1.250054e-02 -2.000000e-02
      vertex  9.990000e-03 -1.577270e-03 -1.250000e-02
      vertex  9.990000e-03 -9.747760e-05 -4.500000e-04
    endloop
  endfacet
  facet normal -1.000000e+00  0.000000e+00  0.000000e+00
    outer loop
      vertex  9.990000e-03  1.250054e-02 -2.000000e-02
      vertex  9.990000e-03 -9.747760e-05 -4.500000e-04
      vertex  9.990000e-03  1.018566e-02 -4.500000e-04
    endloop
  endfacet
  facet normal -1.000000e+00  0.000000e+00  0.000000e+00
    outer loop
      vertex  9.990000e-03  1.250054e-02 -2.000000e-02
      vertex  9.990000e-03  1.018566e-02 -4.500000e-04
      vertex  9.990000e-03  1.166545e-02 -1.250000e-02
    endloop
  endfacet
  facet normal -1.000000e+00  0.000000e+00  0.000000e+00
    outer loop
      vertex  9.990000e-03  1.250054e-02 -2.000000e-02
      vertex  9.990000e-03  1.166545e-02 -1.250000e-02
      vertex  9.990000e-03  1.250054e-02 -1.387230e-02
    endloop
  endfacet
  facet normal -1.000000e+00  0.000000e+00  0.000000e+00
    outer loop
      vertex  9.990000e-03 -7.430284e-03 -1.250000e-02
      vertex  9.990000e-03 -7.430284e-03 -1.970000e-02
      vertex  9.990000e-03 -7.781465e-03 -1.250000e-02
    endloop
  endfacet
  facet normal -9.999999e-01  0.000000e+00  0.000000e+00
    outer loop
      vertex  9.990000e-03 -7.781465e-03 -1.250000e-02
      vertex  9.990000e-03 -7.430284e-03 -1.970000e-02
      vertex  9.990000e-03 -7.781465e-03 -2.000000e-02
    endloop
  endfacet
  facet normal -1.000000e+00  -0.000000e+00  0.000000e+00
    outer loop
      vertex  9.990000e-03 -1.018566e-02 -4.500000e-04
      vertex  9.990000e-03 -4.486584e-04 -4.500000e-04
      vertex  9.990000e-03 -1.751847e-02 -1.250000e-02
    endloop
  endfacet
  facet normal -1.000000e+00  0.000000e+00  0.000000e+00
    outer loop
      vertex  9.990000e-03 -1.751847e-02 -1.250000e-02
      vertex  9.990000e-03 -4.486584e-04 -4.500000e-04
      vertex  9.990000e-03 -7.781465e-03 -1.250000e-02
    endloop
  endfacet
  facet normal -1.000000e+00  -0.000000e+00  0.000000e+00
    outer loop
      vertex  9.990000e-03 -2.027384e-02 -4.500000e-04
      vertex  9.990000e-03 -1.053684e-02 -4.500000e-04
      vertex  9.990000e-03 -2.760665e-02 -1.250000e-02
    endloop
  endfacet
  facet normal -1.000000e+00  0.000000e+00  0.000000e+00
    outer loop
      vertex  9.990000e-03 -2.760665e-02 -1.250000e-02
      vertex  9.990000e-03 -1.053684e-02 -4.500000e-04
      vertex  9.990000e-03 -1.786965e-02 -1.250000e-02
    endloop
  endfacet
  facet normal -1.000000e+00  -0.000000e+00  0.000000e+00
    outer loop
      vertex  3.330000e-03 -2.027384e-02 -4.500000e-04
      vertex  3.330000e-03 -1.053684e-02 -4.500000e-04
      vertex  3.330000e-03 -2.760665e-02 -1.250000e-02
    endloop
  endfacet
  facet normal -1.000000e+00  0.000000e+00  0.000000e+00
    outer loop
      vertex  3.330000e-03 -2.760665e-02 -1.250000e-02
      vertex  3.330000e-03 -1.053684e-02 -4.500000e-04
      vertex  3.330000e-03 -1.786965e-02 -1.250000e-02
    endloop
  endfacet
  facet normal -9.999999e-01  0.000000e+00  0.000000e+00
    outer loop
      vertex  3.330000e-03 -1.577270e-03 -1.250000e-02
      vertex  3.330000e-03 -7.430284e-03 -1.250000e-02
      vertex  3.330000e-03  1.465388e-03 -7.500000e-03
    endloop
  endfacet
  facet normal -1.000000e+00  -0.000000e+00  0.000000e+00
    outer loop
      vertex  3.330000e-03  1.465388e-03 -7.500000e-03
      vertex  3.330000e-03 -7.430284e-03 -1.250000e-02
      vertex  3.330000e-03 -9.747762e-05 -4.500001e-04
    endloop
  endfacet
  facet normal -9.999999e-01  0.000000e+00  0.000000e+00
    outer loop
      vertex  3.330000e-03  1.465388e-03 -7.500000e-03
      vertex  3.330000e-03 -9.747762e-05 -4.500001e-04
      vertex  3.330000e-03  8.622793e-03 -7.500000e-03
    endloop
  endfacet
  facet normal -1.000000e+00  0.000000e+00  0.000000e+00
    outer loop
      vertex  3.330000e-03  8.622793e-03 -7.500000e-03
      vertex  3.330000e-03 -9.747762e-05 -4.500001e-04
      vertex  3.330000e-03  1.018566e-02 -4.500000e-04
    endloop
  endfacet
  facet normal -1.000000e+00  0.000000e+00  -0.000000e+00
    outer loop
      vertex  3.330000e-03  8.622793e-03 -7.500000e-03
      vertex  3.330000e-03  1.018566e-02 -4.500000e-04
      vertex  3.330000e-03  1.166545e-02 -1.250000e-02
    endloop
  endfacet
  facet normal -1.000000e+00  0.000000e+00  0.000000e+00
    outer loop
      vertex  3.330000e-03  1.166545e-02 -1.250000e-02
      vertex  3.330000e-03  1.018566e-02 -4.500000e-04
      vertex  3.330000e-03  1.751847e-02 -1.250000e-02
    endloop
  endfacet
  facet normal -1.000000e+00  0.000000e+00  0.000000e+00
    outer loop
      vertex  3.330000e-03  2.027384e-02 -4.500000e-04
      vertex  3.330000e-03  2.760665e-02 -1.250000e-02
      vertex  3.330000e-03  1.053684e-02 -4.500001e-04
    endloop
  endfacet
  facet normal -1.000000e+00  0.000000e+00  0.000000e+00
    outer loop
      vertex  3.330000e-03  1.053684e-02 -4.500001e-04
      vertex  3.330000e-03  2.760665e-02 -1.250000e-02
      vertex  3.330000e-03  1.786965e-02 -1.250000e-02
    endloop
  endfacet
  facet normal  -0.000000e+00  8.542607e-01  5.198447e-01
    outer loop
      vertex  3.030000e-03  1.751847e-02 -1.250000e-02
      vertex  0.000000e+00  1.751847e-02 -1.250000e-02
      vertex  3.030000e-03  1.018566e-02 -4.500000e-04
    endloop
  endfacet
  facet normal  0.000000e+00  8.542607e-01  5.198447e-01
    outer loop
      vertex  3.030000e-03  1.018566e-02 -4.500000e-04
      vertex  0.000000e+00  1.751847e-02 -1.250000e-02
      vertex  0.000000e+00  1.018566e-02 -4.500000e-04
    endloop
  endfacet
  facet normal  -0.000000e+00  8.542607e-01  5.198447e-01
    outer loop
      vertex  9.690000e-03  1.751847e-02 -1.250000e-02
      vertex  3.330000e-03  1.751847e-02 -1.250000e-02
      vertex  9.690000e-03  1.018566e-02 -4.500000e-04
    endloop
  endfacet
  facet normal  0.000000e+00  8.542607e-01  5.198447e-01
    outer loop
      vertex  9.690000e-03  1.018566e-02 -4.500000e-04
      vertex  3.330000e-03  1.751847e-02 -1.250000e-02
      vertex  3.330000e-03  1.018566e-02 -4.500000e-04
    endloop
  endfacet
  facet normal  -0.000000e+00  8.542607e-01  5.198447e-01
    outer loop
      vertex  1.799000e-02  1.751847e-02 -1.250000e-02
      vertex  9.990000e-03  1.751847e-02 -1.250000e-02
      vertex  1.799000e-02  1.018566e-02 -4.500000e-04
    endloop
  endfacet
  facet normal  0.000000e+00  8.542607e-01  5.198447e-01
    outer loop
      vertex  1.799000e-02  1.018566e-02 -4.500000e-04
      vertex  9.990000e-03  1.751847e-02 -1.250000e-02
      vertex  9.990000e-03  1.018566e-02 -4.500000e-04
    endloop
  endfacet
  facet normal  0.000000e+00  8.542607e-01 -5.198447e-01
    outer loop
      vertex  3.030000e-03 -7.781465e-03 -1.250000e-02
      vertex  0.000000e+00 -7.781465e-03 -1.250000e-02
      vertex  3.030000e-03 -4.486584e-04 -4.500000e-04
    endloop
  endfacet
  facet normal  0.000000e+00  8.542607e-01 -5.198447e-01
    outer loop
      vertex  3.030000e-03 -4.486584e-04 -4.500000e-04
      vertex  0.000000e+00 -7.781465e-03 -1.250000e-02
      vertex  0.000000e+00 -4.486584e-04 -4.500000e-04
    endloop
  endfacet
  facet normal  0.000000e+00  8.542609e-01 -5.198447e-01
    outer loop
      vertex  9.690000e-03 -7.781465e-03 -1.250000e-02
      vertex  3.330000e-03 -7.781465e-03 -1.250000e-02
      vertex  9.690000e-03 -4.486584e-04 -4.500000e-04
    endloop
  endfacet
  facet normal  2.435940e-09  8.542609e-01 -5.198447e-01
    outer loop
      vertex  9.690000e-03 -4.486584e-04 -4.500000e-04
      vertex  3.330000e-03 -7.781465e-03 -1.250000e-02
      vertex  3.330000e-03 -4.486584e-04 -4.500001e-04
    endloop
  endfacet
  facet normal  0.000000e+00  8.542607e-01 -5.198447e-01
    outer loop
      vertex  1.799000e-02 -7.781465e-03 -1.250000e-02
      vertex  9.990000e-03 -7.781465e-03 -1.250000e-02
      vertex  1.799000e-02 -4.486584e-04 -4.500000e-04
    endloop
  endfacet
  facet normal  0.000000e+00  8.542607e-01 -5.198447e-01
    outer loop
      vertex  1.799000e-02 -4.486584e-04 -4.500000e-04
      vertex  9.990000e-03 -7.781465e-03 -1.250000e-02
      vertex  9.990000e-03 -4.486584e-04 -4.500000e-04
    endloop
  endfacet
  facet normal  0.000000e+00  8.542607e-01 -5.198447e-01
    outer loop
      vertex  1.799000e-02 -1.786965e-02 -1.250000e-02
      vertex  9.990000e-03 -1.786965e-02 -1.250000e-02
      vertex  1.799000e-02 -1.053684e-02 -4.500000e-04
    endloop
  endfacet
  facet normal  0.000000e+00  8.542607e-01 -5.198447e-01
    outer loop
      vertex  1.799000e-02 -1.053684e-02 -4.500000e-04
      vertex  9.990000e-03 -1.786965e-02 -1.250000e-02
      vertex  9.990000e-03 -1.053684e-02 -4.500000e-04
    endloop
  endfacet
  facet normal  0.000000e+00  8.542607e-01 -5.198447e-01
    outer loop
      vertex  9.690000e-03 -1.786965e-02 -1.250000e-02
      vertex  3.330000e-03 -1.786965e-02 -1.250000e-02
      vertex  9.690000e-03 -1.053684e-02 -4.500000e-04
    endloop
  endfacet
  facet normal  0.000000e+00  8.542607e-01 -5.198447e-01
    outer loop
      vertex  9.690000e-03 -1.053684e-02 -4.500000e-04
      vertex  3.330000e-03 -1.786965e-02 -1.250000e-02
      vertex  3.330000e-03 -1.053684e-02 -4.500000e-04
    endloop
  endfacet
  facet normal  0.000000e+00  8.542607e-01 -5.198447e-01
    outer loop
      vertex  3.030000e-03 -1.786965e-02 -1.250000e-02
      vertex  0.000000e+00 -1.786965e-02 -1.250000e-02
      vertex  3.030000e-03 -1.053684e-02 -4.500000e-04
    endloop
  endfacet
  facet normal  0.000000e+00  8.542607e-01 -5.198447e-01
    outer loop
      vertex  3.030000e-03 -1.053684e-02 -4.500000e-04
      vertex  0.000000e+00 -1.786965e-02 -1.250000e-02
      vertex  0.000000e+00 -1.053684e-02 -4.500000e-04
    endloop
  endfacet
  facet normal -1.000000e+00  -0.000000e+00  0.000000e+00
    outer loop
      vertex  3.330000e-03 -1.018566e-02 -4.500001e-04
      vertex  3.330000e-03 -4.486584e-04 -4.500001e-04
      vertex  3.330000e-03 -1.751847e-02 -1.250000e-02
    endloop
  endfacet
  facet normal -1.000000e+00  0.000000e+00  0.000000e+00
    outer loop
      vertex  3.330000e-03 -1.751847e-02 -1.250000e-02
      vertex  3.330000e-03 -4.486584e-04 -4.500001e-04
      vertex  3.330000e-03 -7.781465e-03 -1.250000e-02
    endloop
  endfacet
  facet normal -2.435940e-09 -8.542607e-01  5.198447e-01
    outer loop
      vertex  9.690000e-03 -1.018566e-02 -4.500000e-04
      vertex  3.330000e-03 -1.018566e-02 -4.500001e-04
      vertex  9.690000e-03 -1.751847e-02 -1.250000e-02
    endloop
  endfacet
  facet normal  0.000000e+00 -8.542607e-01  5.198447e-01
    outer loop
      vertex  9.690000e-03 -1.751847e-02 -1.250000e-02
      vertex  3.330000e-03 -1.018566e-02 -4.500001e-04
      vertex  3.330000e-03 -1.751847e-02 -1.250000e-02
    endloop
  endfacet
  facet normal  1.000000e+00  0.000000e+00  0.000000e+00
    outer loop
      vertex  3.030000e-03 -1.786965e-02 -1.250000e-02
      vertex  3.030000e-03 -1.053684e-02 -4.500000e-04
      vertex  3.030000e-03 -2.760665e-02 -1.250000e-02
    endloop
  endfacet
  facet normal  1.000000e+00  0.000000e+00  0.000000e+00
    outer loop
      vertex  3.030000e-03 -2.760665e-02 -1.250000e-02
      vertex  3.030000e-03 -1.053684e-02 -4.500000e-04
      vertex  3.030000e-03 -2.027384e-02 -4.500000e-04
    endloop
  endfacet
  facet normal  9.999999e-01  0.000000e+00  0.000000e+00
    outer loop
      vertex  3.030000e-03 -7.781465e-03 -1.250000e-02
      vertex  3.030000e-03 -4.486584e-04 -4.500000e-04
      vertex  3.030000e-03 -1.751847e-02 -1.250000e-02
    endloop
  endfacet
  facet normal  1.000000e+00  0.000000e+00  0.000000e+00
    outer loop
      vertex  3.030000e-03 -1.751847e-02 -1.250000e-02
      vertex  3.030000e-03 -4.486584e-04 -4.500000e-04
      vertex  3.030000e-03 -1.018566e-02 -4.500000e-04
    endloop
  endfacet
  facet normal  1.000000e+00  0.000000e+00  0.000000e+00
    outer loop
      vertex  3.030000e-03  1.166545e-02 -1.250000e-02
      vertex  3.030000e-03  1.751847e-02 -1.250000e-02
      vertex  3.030000e-03  8.622793e-03 -7.500000e-03
    endloop
  endfacet
  facet normal  1.000000e+00  -0.000000e+00  0.000000e+00
    outer loop
      vertex  3.030000e-03  8.622793e-03 -7.500000e-03
      vertex  3.030000e-03  1.751847e-02 -1.250000e-02
      vertex  3.030000e-03  1.018566e-02 -4.500000e-04
    endloop
  endfacet
  facet normal  1.000000e+00  0.000000e+00  0.000000e+00
    outer loop
      vertex  3.030000e-03  8.622793e-03 -7.500000e-03
      vertex  3.030000e-03  1.018566e-02 -4.500000e-04
      vertex  3.030000e-03  1.465388e-03 -7.500000e-03
    endloop
  endfacet
  facet normal  1.000000e+00  0.000000e+00  -0.000000e+00
    outer loop
      vertex  3.030000e-03  1.465388e-03 -7.500000e-03
      vertex  3.030000e-03  1.018566e-02 -4.500000e-04
      vertex  3.030000e-03 -9.747761e-05 -4.500001e-04
    endloop
  endfacet
  facet normal  9.999999e-01  0.000000e+00  0.000000e+00
    outer loop
      vertex  3.030000e-03  1.465388e-03 -7.500000e-03
      vertex  3.030000e-03 -9.747761e-05 -4.500001e-04
      vertex  3.030000e-03 -1.577270e-03 -1.250000e-02
    endloop
  endfacet
  facet normal  1.000000e+00  0.000000e+00  -0.000000e+00
    outer loop
      vertex  3.030000e-03 -1.577270e-03 -1.250000e-02
      vertex  3.030000e-03 -9.747761e-05 -4.500001e-04
      vertex  3.030000e-03 -7.430284e-03 -1.250000e-02
    endloop
  endfacet
  facet normal  1.000000e+00  0.000000e+00  0.000000e+00
    outer loop
      vertex  3.030000e-03  1.786965e-02 -1.250000e-02
      vertex  3.030000e-03  2.760665e-02 -1.250000e-02
      vertex  3.030000e-03  1.053684e-02 -4.500001e-04
    endloop
  endfacet
  facet normal  1.000000e+00  -0.000000e+00  0.000000e+00
    outer loop
      vertex  3.030000e-03  1.053684e-02 -4.500001e-04
      vertex  3.030000e-03  2.760665e-02 -1.250000e-02
      vertex  3.030000e-03  2.027384e-02 -4.500000e-04
    endloop
  endfacet
  facet normal  1.000000e+00  0.000000e+00  0.000000e+00
    outer loop
      vertex  9.690000e-03  1.786965e-02 -1.250000e-02
      vertex  9.690000e-03  2.760665e-02 -1.250000e-02
      vertex  9.690000e-03  1.053684e-02 -4.500001e-04
    endloop
  endfacet
  facet normal  1.000000e+00  -0.000000e+00  0.000000e+00
    outer loop
      vertex  9.690000e-03  1.053684e-02 -4.500001e-04
      vertex  9.690000e-03  2.760665e-02 -1.250000e-02
      vertex  9.690000e-03  2.027384e-02 -4.500000e-04
    endloop
  endfacet
  facet normal  1.000000e+00  0.000000e+00  0.000000e+00
    outer loop
      vertex  9.690000e-03  1.166545e-02 -1.250000e-02
      vertex  9.690000e-03  1.751847e-02 -1.250000e-02
      vertex  9.690000e-03  8.622793e-03 -7.500000e-03
    endloop
  endfacet
  facet normal  1.000000e+00  -0.000000e+00  0.000000e+00
    outer loop
      vertex  9.690000e-03  8.622793e-03 -7.500000e-03
      vertex  9.690000e-03  1.751847e-02 -1.250000e-02
      vertex  9.690000e-03  1.018566e-02 -4.500000e-04
    endloop
  endfacet
  facet normal  1.000000e+00  0.000000e+00  0.000000e+00
    outer loop
      vertex  9.690000e-03  8.622793e-03 -7.500000e-03
      vertex  9.690000e-03  1.018566e-02 -4.500000e-04
      vertex  9.690000e-03  1.465388e-03 -7.500000e-03
    endloop
  endfacet
  facet normal  1.000000e+00  0.000000e+00  -0.000000e+00
    outer loop
      vertex  9.690000e-03  1.465388e-03 -7.500000e-03
      vertex  9.690000e-03  1.018566e-02 -4.500000e-04
      vertex  9.690000e-03 -9.747761e-05 -4.500001e-04
    endloop
  endfacet
  facet normal  9.999999e-01  0.000000e+00  0.000000e+00
    outer loop
      vertex  9.690000e-03  1.465388e-03 -7.500000e-03
      vertex  9.690000e-03 -9.747761e-05 -4.500001e-04
      vertex  9.690000e-03 -1.577270e-03 -1.250000e-02
    endloop
  endfacet
  facet normal  1.000000e+00  0.000000e+00  -0.000000e+00
    outer loop
      vertex  9.690000e-03 -1.577270e-03 -1.250000e-02
      vertex  9.690000e-03 -9.747761e-05 -4.500001e-04
      vertex  9.690000e-03 -7.430284e-03 -1.250000e-02
    endloop
  endfacet
  facet normal  9.999999e-01  0.000000e+00  0.000000e+00
    outer loop
      vertex  9.690000e-03 -7.781465e-03 -1.250000e-02
      vertex  9.690000e-03 -4.486584e-04 -4.500000e-04
      vertex  9.690000e-03 -1.751847e-02 -1.250000e-02
    endloop
  endfacet
  facet normal  1.000000e+00  0.000000e+00  0.000000e+00
    outer loop
      vertex  9.690000e-03 -1.751847e-02 -1.250000e-02
      vertex  9.690000e-03 -4.486584e-04 -4.500000e-04
      vertex  9.690000e-03 -1.018566e-02 -4.500000e-04
    endloop
  endfacet
  facet normal  1.000000e+00  0.000000e+00  0.000000e+00
    outer loop
      vertex  9.690000e-03 -1.786965e-02 -1.250000e-02
      vertex  9.690000e-03 -1.053684e-02 -4.500000e-04
      vertex  9.690000e-03 -2.760665e-02 -1.250000e-02
    endloop
  endfacet
  facet normal  1.000000e+00  0.000000e+00  0.000000e+00
    outer loop
      vertex  9.690000e-03 -2.760665e-02 -1.250000e-02
      vertex  9.690000e-03 -1.053684e-02 -4.500000e-04
      vertex  9.690000e-03 -2.027384e-02 -4.500000e-04
    endloop
  endfacet
  facet normal -1.000000e+00  0.000000e+00  0.000000e+00
    outer loop
      vertex  9.990000e-03  2.027384e-02 -4.500000e-04
      vertex  9.990000e-03  2.760665e-02 -1.250000e-02
      vertex  9.990000e-03  1.053684e-02 -4.500001e-04
    endloop
  endfacet
  facet normal -1.000000e+00  0.000000e+00  0.000000e+00
    outer loop
      vertex  9.990000e-03  1.053684e-02 -4.500001e-04
      vertex  9.990000e-03  2.760665e-02 -1.250000e-02
      vertex  9.990000e-03  1.786965e-02 -1.250000e-02
    endloop
  endfacet
  facet normal  -0.000000e+00 -8.542609e-01 -5.198446e-01
    outer loop
      vertex  0.000000e+00  1.250054e-02 -1.387230e-02
      vertex  9.990000e-03  1.250054e-02 -1.387230e-02
      vertex  9.990000e-03  1.166545e-02 -1.250000e-02
    endloop
  endfacet
  facet normal  -0.000000e+00 -8.542609e-01 -5.198447e-01
    outer loop
      vertex  0.000000e+00  1.250054e-02 -1.387230e-02
      vertex  9.990000e-03  1.166545e-02 -1.250000e-02
      vertex  9.690000e-03  1.166545e-02 -1.250000e-02
    endloop
  endfacet
  facet normal  -0.000000e+00 -8.542609e-01 -5.198446e-01
    outer loop
      vertex  0.000000e+00  1.250054e-02 -1.387230e-02
      vertex  9.690000e-03  1.166545e-02 -1.250000e-02
      vertex  3.330000e-03  1.166545e-02 -1.250000e-02
    endloop
  endfacet
  facet normal  -0.000000e+00 -8.542608e-01 -5.198446e-01
    outer loop
      vertex  0.000000e+00  1.250054e-02 -1.387230e-02
      vertex  3.330000e-03  1.166545e-02 -1.250000e-02
      vertex  3.030000e-03  1.166545e-02 -1.250000e-02
    endloop
  endfacet
  facet normal  1.075494e-07 -8.542607e-01 -5.198448e-01
    outer loop
      vertex  0.000000e+00  1.250054e-02 -1.387230e-02
      vertex  3.030000e-03  1.166545e-02 -1.250000e-02
      vertex  3.030000e-03  8.622793e-03 -7.500000e-03
    endloop
  endfacet
  facet normal  -0.000000e+00 -8.542607e-01 -5.198448e-01
    outer loop
      vertex  0.000000e+00  1.250054e-02 -1.387230e-02
      vertex  3.030000e-03  8.622793e-03 -7.500000e-03
      vertex  0.000000e+00  8.622793e-03 -7.500000e-03
    endloop
  endfacet
  facet normal  0.000000e+00 -8.542608e-01 -5.198448e-01
    outer loop
      vertex  3.330000e-03  8.622793e-03 -7.500000e-03
      vertex  3.330000e-03  1.166545e-02 -1.250000e-02
      vertex  9.690000e-03  8.622793e-03 -7.500000e-03
    endloop
  endfacet
  facet normal  0.000000e+00 -8.542608e-01 -5.198448e-01
    outer loop
      vertex  9.690000e-03  8.622793e-03 -7.500000e-03
      vertex  3.330000e-03  1.166545e-02 -1.250000e-02
      vertex  9.690000e-03  1.166545e-02 -1.250000e-02
    endloop
  endfacet
  facet normal  0.000000e+00 -1.000000e+00  -0.000000e+00
    outer loop
      vertex  9.990000e-03  1.250054e-02 -2.000000e-02
      vertex  9.990000e-03  1.250054e-02 -1.387230e-02
      vertex  0.000000e+00  1.250054e-02 -2.000000e-02
    endloop
  endfacet
  facet normal  0.000000e+00 -1.000000e+00  0.000000e+00
    outer loop
      vertex  0.000000e+00  1.250054e-02 -2.000000e-02
      vertex  9.990000e-03  1.250054e-02 -1.387230e-02
      vertex  0.000000e+00  1.250054e-02 -1.387230e-02
    endloop
  endfacet
  facet normal  0.000000e+00  0.000000e+00  1.000000e+00
    outer loop
      vertex  0.000000e+00  1.250054e-02 -2.000000e-02
      vertex  0.000000e+00 -7.781465e-03 -2.000000e-02
      vertex  9.990000e-03  1.250054e-02 -2.000000e-02
    endloop
  endfacet
  facet normal  0.000000e+00  0.000000e+00  1.000000e+00
    outer loop
      vertex  9.990000e-03  1.250054e-02 -2.000000e-02
      vertex  0.000000e+00 -7.781465e-03 -2.000000e-02
      vertex  9.990000e-03 -7.781465e-03 -2.000000e-02
    endloop
  endfacet
  facet normal  0.000000e+00  0.000000e+00 -1.000000e+00
    outer loop
      vertex  3.030000e-03  1.465388e-03 -7.500000e-03
      vertex  0.000000e+00  1.465388e-03 -7.500000e-03
      vertex  3.030000e-03  8.622793e-03 -7.500000e-03
    endloop
  endfacet
  facet normal  -0.000000e+00  0.000000e+00 -1.000000e+00
    outer loop
      vertex  3.030000e-03  8.622793e-03 -7.500000e-03
      vertex  0.000000e+00  1.465388e-03 -7.500000e-03
      vertex  0.000000e+00  8.622793e-03 -7.500000e-03
    endloop
  endfacet
  facet normal  0.000000e+00  0.000000e+00 -1.000000e+00
    outer loop
      vertex  9.690000e-03  1.465388e-03 -7.500000e-03
      vertex  3.330000e-03  1.465388e-03 -7.500000e-03
      vertex  9.690000e-03  8.622793e-03 -7.500000e-03
    endloop
  endfacet
  facet normal  -0.000000e+00  0.000000e+00 -1.000000e+00
    outer loop
      vertex  9.690000e-03  8.622793e-03 -7.500000e-03
      vertex  3.330000e-03  1.465388e-03 -7.500000e-03
      vertex  3.330000e-03  8.622793e-03 -7.500000e-03
    endloop
  endfacet
  facet normal  0.000000e+00  8.542607e-01 -5.198447e-01
    outer loop
      vertex  3.030000e-03  1.465388e-03 -7.500000e-03
      vertex  3.030000e-03 -1.577270e-03 -1.250000e-02
      vertex  0.000000e+00  1.465388e-03 -7.500000e-03
    endloop
  endfacet
  facet normal -6.370762e-08  8.542607e-01 -5.198447e-01
    outer loop
      vertex  0.000000e+00 -3.671140e-03 -1.594086e-02
      vertex  0.000000e+00  1.465388e-03 -7.500000e-03
      vertex  3.030000e-03 -1.577270e-03 -1.250000e-02
    endloop
  endfacet
  facet normal  0.000000e+00  8.542607e-01 -5.198447e-01
    outer loop
      vertex  0.000000e+00 -3.671140e-03 -1.594086e-02
      vertex  3.030000e-03 -1.577270e-03 -1.250000e-02
      vertex  3.330000e-03 -1.577270e-03 -1.250000e-02
    endloop
  endfacet
  facet normal  0.000000e+00  8.542607e-01 -5.198447e-01
    outer loop
      vertex  0.000000e+00 -3.671140e-03 -1.594086e-02
      vertex  3.330000e-03 -1.577270e-03 -1.250000e-02
      vertex  9.690000e-03 -1.577270e-03 -1.250000e-02
    endloop
  endfacet
  facet normal  0.000000e+00  8.542607e-01 -5.198447e-01
    outer loop
      vertex  0.000000e+00 -3.671140e-03 -1.594086e-02
      vertex  9.690000e-03 -1.577270e-03 -1.250000e-02
      vertex  9.990000e-03 -1.577270e-03 -1.250000e-02
    endloop
  endfacet
  facet normal  0.000000e+00  8.542608e-01 -5.198447e-01
    outer loop
      vertex  0.000000e+00 -3.671140e-03 -1.594086e-02
      vertex  9.990000e-03 -1.577270e-03 -1.250000e-02
      vertex  9.990000e-03 -3.671140e-03 -1.594086e-02
    endloop
  endfacet
  facet normal  0.000000e+00  8.542608e-01 -5.198447e-01
    outer loop
      vertex  9.690000e-03 -1.577270e-03 -1.250000e-02
      vertex  3.330000e-03 -1.577270e-03 -1.250000e-02
      vertex  9.690000e-03  1.465388e-03 -7.500000e-03
    endloop
  endfacet
  facet normal  0.000000e+00  8.542608e-01 -5.198447e-01
    outer loop
      vertex  9.690000e-03  1.465388e-03 -7.500000e-03
      vertex  3.330000e-03 -1.577270e-03 -1.250000e-02
      vertex  3.330000e-03  1.465388e-03 -7.500000e-03
    endloop
  endfacet
  facet normal  0.000000e+00  7.071069e-01 -7.071067e-01
    outer loop
      vertex  9.990000e-03 -7.430284e-03 -1.970000e-02
      vertex  0.000000e+00 -7.430284e-03 -1.970000e-02
      vertex  9.990000e-03 -3.671140e-03 -1.594086e-02
    endloop
  endfacet
  facet normal  0.000000e+00  7.071069e-01 -7.071067e-01
    outer loop
      vertex  9.990000e-03 -3.671140e-03 -1.594086e-02
      vertex  0.000000e+00 -7.430284e-03 -1.970000e-02
      vertex  0.000000e+00 -3.671140e-03 -1.594086e-02
    endloop
  endfacet
  facet normal  -0.000000e+00 -1.000000e+00  -0.000000e+00
    outer loop
      vertex  9.990000e-03 -7.430284e-03 -1.970000e-02
      vertex  9.990000e-03 -7.430284e-03 -1.250000e-02
      vertex  9.690000e-03 -7.430284e-03 -1.250000e-02
    endloop
  endfacet
  facet normal  -0.000000e+00 -1.000000e+00  -0.000000e+00
    outer loop
      vertex  9.990000e-03 -7.430284e-03 -1.970000e-02
      vertex  9.690000e-03 -7.430284e-03 -1.250000e-02
      vertex  3.330000e-03 -7.430284e-03 -1.250000e-02
    endloop
  endfacet
  facet normal  -0.000000e+00 -1.000000e+00  -0.000000e+00
    outer loop
      vertex  9.990000e-03 -7.430284e-03 -1.970000e-02
      vertex  3.330000e-03 -7.430284e-03 -1.250000e-02
      vertex  3.030000e-03 -7.430284e-03 -1.250000e-02
    endloop
  endfacet
  facet normal  -0.000000e+00 -1.000000e+00  -0.000000e+00
    outer loop
      vertex  9.990000e-03 -7.430284e-03 -1.970000e-02
      vertex  3.030000e-03 -7.430284e-03 -1.250000e-02
      vertex  0.000000e+00 -7.430284e-03 -1.250000e-02
    endloop
  endfacet
  facet normal  0.000000e+00 -1.000000e+00  0.000000e+00
    outer loop
      vertex  9.990000e-03 -7.430284e-03 -1.970000e-02
      vertex  0.000000e+00 -7.430284e-03 -1.250000e-02
      vertex  0.000000e+00 -7.430284e-03 -1.970000e-02
    endloop
  endfacet
  facet normal  0.000000e+00  1.000000e+00  0.000000e+00
    outer loop
      vertex  9.990000e-03 -7.781465e-03 -2.000000e-02
      vertex  0.000000e+00 -7.781465e-03 -2.000000e-02
      vertex  0.000000e+00 -7.781465e-03 -1.250000e-02
    endloop
  endfacet
  facet normal  -0.000000e+00  1.000000e+00  0.000000e+00
    outer loop
      vertex  9.990000e-03 -7.781465e-03 -2.000000e-02
      vertex  0.000000e+00 -7.781465e-03 -1.250000e-02
      vertex  3.030000e-03 -7.781465e-03 -1.250000e-02
    endloop
  endfacet
  facet normal  -0.000000e+00  1.000000e+00  0.000000e+00
    outer loop
      vertex  9.990000e-03 -7.781465e-03 -2.000000e-02
      vertex  3.030000e-03 -7.781465e-03 -1.250000e-02
      vertex  3.330000e-03 -7.781465e-03 -1.250000e-02
    endloop
  endfacet
  facet normal  -0.000000e+00  1.000000e+00  0.000000e+00
    outer loop
      vertex  9.990000e-03 -7.781465e-03 -2.000000e-02
      vertex  3.330000e-03 -7.781465e-03 -1.250000e-02
      vertex  9.690000e-03 -7.781465e-03 -1.250000e-02
    endloop
  endfacet
  facet normal  -0.000000e+00  1.000000e+00  0.000000e+00
    outer loop
      vertex  9.990000e-03 -7.781465e-03 -2.000000e-02
      vertex  9.690000e-03 -7.781465e-03 -1.250000e-02
      vertex  9.990000e-03 -7.781465e-03 -1.250000e-02
    endloop
  endfacet
  facet normal  0.000000e+00 -3.060729e-09  1.000000e+00
    outer loop
      vertex  3.030000e-03  2.027384e-02 -4.500000e-04
      vertex  0.000000e+00  2.027384e-02 -4.500000e-04
      vertex  3.030000e-03  1.053684e-02 -4.500001e-04
    endloop
  endfacet
  facet normal  9.835751e-09  0.000000e+00  1.000000e+00
    outer loop
      vertex  3.030000e-03  1.053684e-02 -4.500001e-04
      vertex  0.000000e+00  2.027384e-02 -4.500000e-04
      vertex  0.000000e+00  1.053684e-02 -4.500000e-04
    endloop
  endfacet
  facet normal  0.000000e+00 -3.060729e-09  1.000000e+00
    outer loop
      vertex  9.690000e-03  2.027384e-02 -4.500000e-04
      vertex  3.330000e-03  2.027384e-02 -4.500000e-04
      vertex  9.690000e-03  1.053684e-02 -4.500001e-04
    endloop
  endfacet
  facet normal  0.000000e+00 -3.060729e-09  1.000000e+00
    outer loop
      vertex  9.690000e-03  1.053684e-02 -4.500001e-04
      vertex  3.330000e-03  2.027384e-02 -4.500000e-04
      vertex  3.330000e-03  1.053684e-02 -4.500001e-04
    endloop
  endfacet
  facet normal  -0.000000e+00  0.000000e+00  1.000000e+00
    outer loop
      vertex  1.799000e-02  2.027384e-02 -4.500000e-04
      vertex  9.990000e-03  2.027384e-02 -4.500000e-04
      vertex  1.799000e-02  1.053684e-02 -4.500000e-04
    endloop
  endfacet
  facet normal -3.725290e-09 -3.060729e-09  1.000000e+00
    outer loop
      vertex  1.799000e-02  1.053684e-02 -4.500000e-04
      vertex  9.990000e-03  2.027384e-02 -4.500000e-04
      vertex  9.990000e-03  1.053684e-02 -4.500001e-04
    endloop
  endfacet
  facet normal  0.000000e+00 -2.898174e-09  1.000000e+00
    outer loop
      vertex  3.030000e-03  1.018566e-02 -4.500000e-04
      vertex  0.000000e+00  1.018566e-02 -4.500000e-04
      vertex  3.030000e-03 -9.747761e-05 -4.500001e-04
    endloop
  endfacet
  facet normal  9.835750e-09  0.000000e+00  1.000000e+00
    outer loop
      vertex  3.030000e-03 -9.747761e-05 -4.500001e-04
      vertex  0.000000e+00  1.018566e-02 -4.500000e-04
      vertex  0.000000e+00 -9.747760e-05 -4.500000e-04
    endloop
  endfacet
  facet normal  0.000000e+00 -2.898175e-09  1.000000e+00
    outer loop
      vertex  9.690000e-03  1.018566e-02 -4.500000e-04
      vertex  3.330000e-03  1.018566e-02 -4.500000e-04
      vertex  9.690000e-03 -9.747761e-05 -4.500001e-04
    endloop
  endfacet
  facet normal  3.395139e-18 -2.898175e-09  1.000000e+00
    outer loop
      vertex  9.690000e-03 -9.747761e-05 -4.500001e-04
      vertex  3.330000e-03  1.018566e-02 -4.500000e-04
      vertex  3.330000e-03 -9.747762e-05 -4.500001e-04
    endloop
  endfacet
  facet normal  -0.000000e+00  0.000000e+00  1.000000e+00
    outer loop
      vertex  1.799000e-02  1.018566e-02 -4.500000e-04
      vertex  9.990000e-03  1.018566e-02 -4.500000e-04
      vertex  1.799000e-02 -9.747760e-05 -4.500000e-04
    endloop
  endfacet
  facet normal  0.000000e+00  0.000000e+00  1.000000e+00
    outer loop
      vertex  1.799000e-02 -9.747760e-05 -4.500000e-04
      vertex  9.990000e-03  1.018566e-02 -4.500000e-04
      vertex  9.990000e-03 -9.747760e-05 -4.500000e-04
    endloop
  endfacet
  facet normal  -0.000000e+00  0.000000e+00  1.000000e+00
    outer loop
      vertex  3.030000e-03 -4.486584e-04 -4.500000e-04
      vertex  0.000000e+00 -4.486584e-04 -4.500000e-04
      vertex  3.030000e-03 -1.018566e-02 -4.500000e-04
    endloop
  endfacet
  facet normal  0.000000e+00  0.000000e+00  1.000000e+00
    outer loop
      vertex  3.030000e-03 -1.018566e-02 -4.500000e-04
      vertex  0.000000e+00 -4.486584e-04 -4.500000e-04
      vertex  0.000000e+00 -1.018566e-02 -4.500000e-04
    endloop
  endfacet
  facet normal -4.685900e-09  0.000000e+00  1.000000e+00
    outer loop
      vertex  9.690000e-03 -4.486584e-04 -4.500000e-04
      vertex  3.330000e-03 -4.486584e-04 -4.500001e-04
      vertex  9.690000e-03 -1.018566e-02 -4.500000e-04
    endloop
  endfacet
  facet normal -4.685900e-09  0.000000e+00  1.000000e+00
    outer loop
      vertex  9.690000e-03 -1.018566e-02 -4.500000e-04
      vertex  3.330000e-03 -4.486584e-04 -4.500001e-04
      vertex  3.330000e-03 -1.018566e-02 -4.500001e-04
    endloop
  endfacet
  facet normal  -0.000000e+00  0.000000e+00  1.000000e+00
    outer loop
      vertex  1.799000e-02 -4.486584e-04 -4.500000e-04
      vertex  9.990000e-03 -4.486584e-04 -4.500000e-04
      vertex  1.799000e-02 -1.018566e-02 -4.500000e-04
    endloop
  endfacet
  facet normal  0.000000e+00  0.000000e+00  1.000000e+00
    outer loop
      vertex  1.799000e-02 -1.018566e-02 -4.500000e-04
      vertex  9.990000e-03 -4.486584e-04 -4.500000e-04
      vertex  9.990000e-03 -1.018566e-02 -4.500000e-04
    endloop
  endfacet
  facet normal  -0.000000e+00  0.000000e+00  1.000000e+00
    outer loop
      vertex  3.030000e-03 -1.053684e-02 -4.500000e-04
      vertex  0.000000e+00 -1.053684e-02 -4.500000e-04
      vertex  3.030000e-03 -2.027384e-02 -4.500000e-04
    endloop
  endfacet
  facet normal  0.000000e+00  0.000000e+00  1.000000e+00
    outer loop
      vertex  3.030000e-03 -2.027384e-02 -4.500000e-04
      vertex  0.000000e+00 -1.053684e-02 -4.500000e-04
      vertex  0.000000e+00 -2.027384e-02 -4.500000e-04
    endloop
  endfacet
  facet normal  -0.000000e+00  0.000000e+00  1.000000e+00
    outer loop
      vertex  9.690000e-03 -1.053684e-02 -4.500000e-04
      vertex  3.330000e-03 -1.053684e-02 -4.500000e-04
      vertex  9.690000e-03 -2.027384e-02 -4.500000e-04
    endloop
  endfacet
  facet normal  0.000000e+00  0.000000e+00  1.000000e+00
    outer loop
      vertex  9.690000e-03 -2.027384e-02 -4.500000e-04
      vertex  3.330000e-03 -1.053684e-02 -4.500000e-04
      vertex  3.330000e-03 -2.027384e-02 -4.500000e-04
    endloop
  endfacet
  facet normal  0.000000e+00 -3.060729e-09  1.000000e+00
    outer loop
      vertex  1.799000e-02 -1.053684e-02 -4.500000e-04
      vertex  9.990000e-03 -1.053684e-02 -4.500000e-04
      vertex  1.799000e-02 -2.027384e-02 -4.500001e-04
    endloop
  endfacet
  facet normal  3.725290e-09  0.000000e+00  1.000000e+00
    outer loop
      vertex  1.799000e-02 -2.027384e-02 -4.500001e-04
      vertex  9.990000e-03 -1.053684e-02 -4.500000e-04
      vertex  9.990000e-03 -2.027384e-02 -4.500000e-04
    endloop
  endfacet
  facet normal  -0.000000e+00  0.000000e+00  1.000000e+00
    outer loop
      vertex  9.690000e-03  1.786965e-02 -1.250000e-02
      vertex  3.330000e-03  1.786965e-02 -1.250000e-02
      vertex  0.000000e+00  1.751847e-02 -1.250000e-02
    endloop
  endfacet
  facet normal  0.000000e+00  0.000000e+00  9.999999e-01
    outer loop
      vertex  9.690000e-03  1.786965e-02 -1.250000e-02
      vertex  0.000000e+00  1.751847e-02 -1.250000e-02
      vertex  9.990000e-03  1.786965e-02 -1.250000e-02
    endloop
  endfacet
  facet normal  0.000000e+00  -0.000000e+00  9.999999e-01
    outer loop
      vertex  9.690000e-03  1.786965e-02 -1.250000e-02
      vertex  9.990000e-03  1.786965e-02 -1.250000e-02
      vertex  9.990000e-03  2.760665e-02 -1.250000e-02
    endloop
  endfacet
  facet normal  0.000000e+00  0.000000e+00  9.999999e-01
    outer loop
      vertex  9.690000e-03  1.786965e-02 -1.250000e-02
      vertex  9.990000e-03  2.760665e-02 -1.250000e-02
      vertex  9.690000e-03  2.760665e-02 -1.250000e-02
    endloop
  endfacet
  facet normal  -0.000000e+00  0.000000e+00  1.000000e+00
    outer loop
      vertex  3.030000e-03  1.786965e-02 -1.250000e-02
      vertex  0.000000e+00  1.786965e-02 -1.250000e-02
      vertex  0.000000e+00  1.751847e-02 -1.250000e-02
    endloop
  endfacet
  facet normal  0.000000e+00  0.000000e+00  1.000000e+00
    outer loop
      vertex  3.030000e-03  1.786965e-02 -1.250000e-02
      vertex  0.000000e+00  1.751847e-02 -1.250000e-02
      vertex  3.330000e-03  1.786965e-02 -1.250000e-02
    endloop
  endfacet
  facet normal  0.000000e+00  -0.000000e+00  1.000000e+00
    outer loop
      vertex  3.030000e-03  1.786965e-02 -1.250000e-02
      vertex  3.330000e-03  1.786965e-02 -1.250000e-02
      vertex  3.330000e-03  2.760665e-02 -1.250000e-02
    endloop
  endfacet
  facet normal  0.000000e+00  0.000000e+00  1.000000e+00
    outer loop
      vertex  3.030000e-03  1.786965e-02 -1.250000e-02
      vertex  3.330000e-03  2.760665e-02 -1.250000e-02
      vertex  3.030000e-03  2.760665e-02 -1.250000e-02
    endloop
  endfacet
  facet normal  -0.000000e+00  0.000000e+00  1.000000e+00
    outer loop
      vertex  1.799000e-02  1.786965e-02 -1.250000e-02
      vertex  9.990000e-03  1.786965e-02 -1.250000e-02
      vertex  0.000000e+00  1.751847e-02 -1.250000e-02
    endloop
  endfacet
  facet normal  0.000000e+00  0.000000e+00  1.000000e+00
    outer loop
      vertex  1.799000e-02  1.786965e-02 -1.250000e-02
      vertex  0.000000e+00  1.751847e-02 -1.250000e-02
      vertex  3.030000e-03  1.751847e-02 -1.250000e-02
    endloop
  endfacet
  facet normal  0.000000e+00  0.000000e+00  1.000000e+00
    outer loop
      vertex  1.799000e-02  1.786965e-02 -1.250000e-02
      vertex  3.030000e-03  1.751847e-02 -1.250000e-02
      vertex  3.330000e-03  1.751847e-02 -1.250000e-02
    endloop
  endfacet
  facet normal  0.000000e+00  0.000000e+00  1.000000e+00
    outer loop
      vertex  1.799000e-02  1.786965e-02 -1.250000e-02
      vertex  3.330000e-03  1.751847e-02 -1.250000e-02
      vertex  9.690000e-03  1.751847e-02 -1.250000e-02
    endloop
  endfacet
  facet normal  0.000000e+00  0.000000e+00  1.000000e+00
    outer loop
      vertex  1.799000e-02  1.786965e-02 -1.250000e-02
      vertex  9.690000e-03  1.751847e-02 -1.250000e-02
      vertex  9.990000e-03  1.751847e-02 -1.250000e-02
    endloop
  endfacet
  facet normal  0.000000e+00  0.000000e+00  1.000000e+00
    outer loop
      vertex  1.799000e-02  1.786965e-02 -1.250000e-02
      vertex  9.990000e-03  1.751847e-02 -1.250000e-02
      vertex  1.799000e-02  1.751847e-02 -1.250000e-02
    endloop
  endfacet
  facet normal  0.000000e+00  0.000000e+00  1.000000e+00
    outer loop
      vertex  9.690000e-03  1.751847e-02 -1.250000e-02
      vertex  9.690000e-03  1.166545e-02 -1.250000e-02
      vertex  9.990000e-03  1.751847e-02 -1.250000e-02
    endloop
  endfacet
  facet normal  0.000000e+00  0.000000e+00  1.000000e+00
    outer loop
      vertex  9.990000e-03  1.751847e-02 -1.250000e-02
      vertex  9.690000e-03  1.166545e-02 -1.250000e-02
      vertex  9.990000e-03  1.166545e-02 -1.250000e-02
    endloop
  endfacet
  facet normal  0.000000e+00  0.000000e+00  1.000000e+00
    outer loop
      vertex  3.030000e-03  1.751847e-02 -1.250000e-02
      vertex  3.030000e-03  1.166545e-02 -1.250000e-02
      vertex  3.330000e-03  1.751847e-02 -1.250000e-02
    endloop
  endfacet
  facet normal  0.000000e+00  0.000000e+00  1.000000e+00
    outer loop
      vertex  3.330000e-03  1.751847e-02 -1.250000e-02
      vertex  3.030000e-03  1.166545e-02 -1.250000e-02
      vertex  3.330000e-03  1.166545e-02 -1.250000e-02
    endloop
  endfacet
  facet normal  -0.000000e+00  0.000000e+00  1.000000e+00
    outer loop
      vertex  9.690000e-03 -1.751847e-02 -1.250000e-02
      vertex  3.330000e-03 -1.751847e-02 -1.250000e-02
      vertex  0.000000e+00 -1.786965e-02 -1.250000e-02
    endloop
  endfacet
  facet normal  0.000000e+00  0.000000e+00  9.999999e-01
    outer loop
      vertex  9.690000e-03 -1.751847e-02 -1.250000e-02
      vertex  0.000000e+00 -1.786965e-02 -1.250000e-02
      vertex  9.990000e-03 -1.751847e-02 -1.250000e-02
    endloop
  endfacet
  facet normal  0.000000e+00  -0.000000e+00  1.000000e+00
    outer loop
      vertex  9.690000e-03 -1.751847e-02 -1.250000e-02
      vertex  9.990000e-03 -1.751847e-02 -1.250000e-02
      vertex  9.990000e-03 -7.781465e-03 -1.250000e-02
    endloop
  endfacet
  facet normal  0.000000e+00  0.000000e+00  1.000000e+00
    outer loop
      vertex  9.690000e-03 -1.751847e-02 -1.250000e-02
      vertex  9.990000e-03 -7.781465e-03 -1.250000e-02
      vertex  9.690000e-03 -7.781465e-03 -1.250000e-02
    endloop
  endfacet
  facet normal  -0.000000e+00  0.000000e+00  1.000000e+00
    outer loop
      vertex  3.030000e-03 -1.751847e-02 -1.250000e-02
      vertex  0.000000e+00 -1.751847e-02 -1.250000e-02
      vertex  0.000000e+00 -1.786965e-02 -1.250000e-02
    endloop
  endfacet
  facet normal  0.000000e+00  0.000000e+00  1.000000e+00
    outer loop
      vertex  3.030000e-03 -1.751847e-02 -1.250000e-02
      vertex  0.000000e+00 -1.786965e-02 -1.250000e-02
      vertex  3.330000e-03 -1.751847e-02 -1.250000e-02
    endloop
  endfacet
  facet normal  0.000000e+00  -0.000000e+00  1.000000e+00
    outer loop
      vertex  3.030000e-03 -1.751847e-02 -1.250000e-02
      vertex  3.330000e-03 -1.751847e-02 -1.250000e-02
      vertex  3.330000e-03 -7.781465e-03 -1.250000e-02
    endloop
  endfacet
  facet normal  0.000000e+00  0.000000e+00  1.000000e+00
    outer loop
      vertex  3.030000e-03 -1.751847e-02 -1.250000e-02
      vertex  3.330000e-03 -7.781465e-03 -1.250000e-02
      vertex  3.030000e-03 -7.781465e-03 -1.250000e-02
    endloop
  endfacet
  facet normal  -0.000000e+00  0.000000e+00  1.000000e+00
    outer loop
      vertex  1.799000e-02 -1.751847e-02 -1.250000e-02
      vertex  9.990000e-03 -1.751847e-02 -1.250000e-02
      vertex  0.000000e+00 -1.786965e-02 -1.250000e-02
    endloop
  endfacet
  facet normal  0.000000e+00  0.000000e+00  1.000000e+00
    outer loop
      vertex  1.799000e-02 -1.751847e-02 -1.250000e-02
      vertex  0.000000e+00 -1.786965e-02 -1.250000e-02
      vertex  3.030000e-03 -1.786965e-02 -1.250000e-02
    endloop
  endfacet
  facet normal  0.000000e+00  0.000000e+00  1.000000e+00
    outer loop
      vertex  1.799000e-02 -1.751847e-02 -1.250000e-02
      vertex  3.030000e-03 -1.786965e-02 -1.250000e-02
      vertex  3.330000e-03 -1.786965e-02 -1.250000e-02
    endloop
  endfacet
  facet normal  0.000000e+00  0.000000e+00  1.000000e+00
    outer loop
      vertex  1.799000e-02 -1.751847e-02 -1.250000e-02
      vertex  3.330000e-03 -1.786965e-02 -1.250000e-02
      vertex  9.690000e-03 -1.786965e-02 -1.250000e-02
    endloop
  endfacet
  facet normal  0.000000e+00  0.000000e+00  1.000000e+00
    outer loop
      vertex  1.799000e-02 -1.751847e-02 -1.250000e-02
      vertex  9.690000e-03 -1.786965e-02 -1.250000e-02
      vertex  9.990000e-03 -1.786965e-02 -1.250000e-02
    endloop
  endfacet
  facet normal  0.000000e+00  0.000000e+00  1.000000e+00
    outer loop
      vertex  1.799000e-02 -1.751847e-02 -1.250000e-02
      vertex  9.990000e-03 -1.786965e-02 -1.250000e-02
      vertex  1.799000e-02 -1.786965e-02 -1.250000e-02
    endloop
  endfacet
  facet normal  0.000000e+00  0.000000e+00  9.999999e-01
    outer loop
      vertex  9.690000e-03 -1.786965e-02 -1.250000e-02
      vertex  9.690000e-03 -2.760665e-02 -1.250000e-02
      vertex  9.990000e-03 -1.786965e-02 -1.250000e-02
    endloop
  endfacet
  facet normal  0.000000e+00  0.000000e+00  9.999999e-01
    outer loop
      vertex  9.990000e-03 -1.786965e-02 -1.250000e-02
      vertex  9.690000e-03 -2.760665e-02 -1.250000e-02
      vertex  9.990000e-03 -2.760665e-02 -1.250000e-02
    endloop
  endfacet
  facet normal  0.000000e+00  0.000000e+00  1.000000e+00
    outer loop
      vertex  3.030000e-03 -1.786965e-02 -1.250000e-02
      vertex  3.030000e-03 -2.760665e-02 -1.250000e-02
      vertex  3.330000e-03 -1.786965e-02 -1.250000e-02
    endloop
  endfacet
  facet normal  0.000000e+00  0.000000e+00  1.000000e+00
    outer loop
      vertex  3.330000e-03 -1.786965e-02 -1.250000e-02
      vertex  3.030000e-03 -2.760665e-02 -1.250000e-02
      vertex  3.330000e-03 -2.760665e-02 -1.250000e-02
    endloop
  endfacet
  facet normal  0.000000e+00  0.000000e+00  9.999999e-01
    outer loop
      vertex  9.690000e-03 -1.577270e-03 -1.250000e-02
      vertex  9.690000e-03 -7.430284e-03 -1.250000e-02
      vertex  9.990000e-03 -1.577270e-03 -1.250000e-02
    endloop
  endfacet
  facet normal  0.000000e+00  0.000000e+00  9.999999e-01
    outer loop
      vertex  9.990000e-03 -1.577270e-03 -1.250000e-02
      vertex  9.690000e-03 -7.430284e-03 -1.250000e-02
      vertex  9.990000e-03 -7.430284e-03 -1.250000e-02
    endloop
  endfacet
  facet normal  0.000000e+00  0.000000e+00  1.000000e+00
    outer loop
      vertex  3.030000e-03 -1.577270e-03 -1.250000e-02
      vertex  3.030000e-03 -7.430284e-03 -1.250000e-02
      vertex  3.330000e-03 -1.577270e-03 -1.250000e-02
    endloop
  endfacet
  facet normal  0.000000e+00  0.000000e+00  1.000000e+00
    outer loop
      vertex  3.330000e-03 -1.577270e-03 -1.250000e-02
      vertex  3.030000e-03 -7.430284e-03 -1.250000e-02
      vertex  3.330000e-03 -7.430284e-03 -1.250000e-02
    endloop
  endfacet
  facet normal  0.000000e+00  0.000000e+00  1.000000e+00
    outer loop
      vertex  9.990000e-03 -7.430284e-03 -1.250000e-02
      vertex  9.990000e-03 -7.781465e-03 -1.250000e-02
      vertex  1.799000e-02 -7.430284e-03 -1.250000e-02
    endloop
  endfacet
  facet normal  0.000000e+00  0.000000e+00  1.000000e+00
    outer loop
      vertex  1.799000e-02 -7.430284e-03 -1.250000e-02
      vertex  9.990000e-03 -7.781465e-03 -1.250000e-02
      vertex  1.799000e-02 -7.781465e-03 -1.250000e-02
    endloop
  endfacet
endsolid module_lm_interface

solid module_symmetry
  facet normal -9.999999e-01  -0.000000e+00  -0.000000e+00
    outer loop
      vertex  0.000000e+00 -1.786965e-02 -1.250000e-02
      vertex  0.000000e+00 -1.751847e-02 -1.250000e-02
      vertex  0.000000e+00 -7.781465e-03 -2.000000e-02
    endloop
  endfacet
  facet normal -9.999999e-01 -1.227444e-16 -1.651024e-16
    outer loop
      vertex  0.000000e+00 -1.786965e-02 -1.250000e-02
      vertex  0.000000e+00 -7.781465e-03 -2.000000e-02
      vertex  3.552714e-18 -3.000000e-02 -2.500000e-02
    endloop
  endfacet
  facet normal -1.000000e+00 -2.928780e-16  0.000000e+00
    outer loop
      vertex  0.000000e+00 -1.786965e-02 -1.250000e-02
      vertex  3.552714e-18 -3.000000e-02 -2.500000e-02
      vertex  3.552714e-18 -3.000000e-02 -1.643300e-02
    endloop
  endfacet
  facet normal -1.000000e+00 -2.750830e-16 -5.488406e-17
    outer loop
      vertex  0.000000e+00 -1.786965e-02 -1.250000e-02
      vertex  3.552714e-18 -3.000000e-02 -1.643300e-02
      vertex  0.000000e+00 -2.027384e-02 -4.500000e-04
    endloop
  endfacet
  facet normal -1.000000e+00  0.000000e+00  0.000000e+00
    outer loop
      vertex  0.000000e+00 -1.786965e-02 -1.250000e-02
      vertex  0.000000e+00 -2.027384e-02 -4.500000e-04
      vertex  0.000000e+00 -1.053684e-02 -4.500000e-04
    endloop
  endfacet
  facet normal -9.999999e-01  0.000000e+00  0.000000e+00
    outer loop
      vertex  0.000000e+00  1.465388e-03 -7.500000e-03
      vertex  0.000000e+00 -3.671140e-03 -1.594086e-02
      vertex  0.000000e+00 -9.747760e-05 -4.500000e-04
    endloop
  endfacet
  facet normal -1.000000e+00  0.000000e+00  0.000000e+00
    outer loop
      vertex  0.000000e+00 -9.747760e-05 -4.500000e-04
      vertex  0.000000e+00 -3.671140e-03 -1.594086e-02
      vertex  0.000000e+00 -7.430284e-03 -1.970000e-02
    endloop
  endfacet
  facet normal -9.999999e-01  0.000000e+00  0.000000e+00
    outer loop
      vertex  0.000000e+00 -9.747760e-05 -4.500000e-04
      vertex  0.000000e+00 -7.430284e-03 -1.970000e-02
      vertex  0.000000e+00 -7.430284e-03 -1.250000e-02
    endloop
  endfacet
  facet normal -9.999999e-01  0.000000e+00  0.000000e+00
    outer loop
      vertex  0.000000e+00  1.250054e-02 -2.000000e-02
      vertex  0.000000e+00  1.250054e-02 -1.387230e-02
      vertex  0.000000e+00  1.751847e-02 -1.250000e-02
    endloop
  endfacet
  facet normal -1.000000e+00  -0.000000e+00  0.000000e+00
    outer loop
      vertex  0.000000e+00  1.751847e-02 -1.250000e-02
      vertex  0.000000e+00  1.250054e-02 -1.387230e-02
      vertex  0.000000e+00  8.622793e-03 -7.500000e-03
    endloop
  endfacet
  facet normal -1.000000e+00  0.000000e+00  0.000000e+00
    outer loop
      vertex  0.000000e+00  1.751847e-02 -1.250000e-02
      vertex  0.000000e+00  8.622793e-03 -7.500000e-03
      vertex  0.000000e+00  1.018566e-02 -4.500000e-04
    endloop
  endfacet
  facet normal -1.000000e+00  0.000000e+00  0.000000e+00
    outer loop
      vertex  0.000000e+00  1.018566e-02 -4.500000e-04
      vertex  0.000000e+00  8.622793e-03 -7.500000e-03
      vertex  0.000000e+00  1.465388e-03 -7.500000e-03
    endloop
  endfacet
  facet normal -1.000000e+00  0.000000e+00  0.000000e+00
    outer loop
      vertex  0.000000e+00  1.018566e-02 -4.500000e-04
      vertex  0.000000e+00  1.465388e-03 -7.500000e-03
      vertex  0.000000e+00 -9.747760e-05 -4.500000e-04
    endloop
  endfacet
  facet normal -1.000000e+00  0.000000e+00  0.000000e+00
    outer loop
      vertex  0.000000e+00 -4.486584e-04 -4.500000e-04
      vertex  0.000000e+00 -7.781465e-03 -1.250000e-02
      vertex  0.000000e+00 -1.018566e-02 -4.500000e-04
    endloop
  endfacet
  facet normal -1.000000e+00  0.000000e+00  0.000000e+00
    outer loop
      vertex  0.000000e+00 -1.018566e-02 -4.500000e-04
      vertex  0.000000e+00 -7.781465e-03 -1.250000e-02
      vertex  0.000000e+00 -7.781465e-03 -2.000000e-02
    endloop
  endfacet
  facet normal -1.000000e+00  0.000000e+00  0.000000e+00
    outer loop
      vertex  0.000000e+00 -1.018566e-02 -4.500000e-04
      vertex  0.000000e+00 -7.781465e-03 -2.000000e-02
      vertex  0.000000e+00 -1.751847e-02 -1.250000e-02
    endloop
  endfacet
  facet normal -1.000000e+00  -0.000000e+00 -7.105427e-16
    outer loop
      vertex  0.000000e+00 -7.781465e-03 -2.000000e-02
      vertex  0.000000e+00  1.250054e-02 -2.000000e-02
      vertex  3.552714e-18 -3.000000e-02 -2.500000e-02
    endloop
  endfacet
  facet normal -1.000000e+00  0.000000e+00 -7.105427e-16
    outer loop
      vertex  3.552714e-18 -3.000000e-02 -2.500000e-02
      vertex  0.000000e+00  1.250054e-02 -2.000000e-02
      vertex  3.552714e-18  3.000000e-02 -2.500000e-02
    endloop
  endfacet
  facet normal -1.000000e+00  1.704368e-16 -1.140320e-16
    outer loop
      vertex  0.000000e+00  1.250054e-02 -2.000000e-02
      vertex  0.000000e+00  1.751847e-02 -1.250000e-02
      vertex  3.552714e-18  3.000000e-02 -2.500000e-02
    endloop
  endfacet
  facet normal -9.999999e-01  0.000000e+00 -2.842176e-16
    outer loop
      vertex  3.552714e-18  3.000000e-02 -2.500000e-02
      vertex  0.000000e+00  1.751847e-02 -1.250000e-02
      vertex  0.000000e+00  1.786965e-02 -1.250000e-02
    endloop
  endfacet
  facet normal -1.000000e+00  -0.000000e+00  0.000000e+00
    outer loop
      vertex  0.000000e+00  1.053684e-02 -4.500000e-04
      vertex  0.000000e+00  2.027384e-02 -4.500000e-04
      vertex  0.000000e+00  1.786965e-02 -1.250000e-02
    endloop
  endfacet
  facet normal -1.000000e+00  2.750830e-16 -5.488406e-17
    outer loop
      vertex  0.000000e+00  1.786965e-02 -1.250000e-02
      vertex  0.000000e+00  2.027384e-02 -4.500000e-04
      vertex  3.552714e-18  3.000000e-02 -1.643300e-02
    endloop
  endfacet
  facet normal -1.000000e+00  2.928780e-16  0.000000e+00
    outer loop
      vertex  0.000000e+00  1.786965e-02 -1.250000e-02
      vertex  3.552714e-18  3.000000e-02 -1.643300e-02
      vertex  3.552714e-18  3.000000e-02 -2.500000e-02
    endloop
  endfacet
endsolid module_symmetry

solid module_walls
  facet normal  0.000000e+00 -1.000000e+00  0.000000e+00
    outer loop
      vertex  3.552714e-18 -3.000000e-02 -2.500000e-02
      vertex  2.599000e-02 -3.000000e-02 -2.500000e-02
      vertex  3.552714e-18 -3.000000e-02 -1.643300e-02
    endloop
  endfacet
  facet normal  0.000000e+00 -1.000000e+00  0.000000e+00
    outer loop
      vertex  3.552714e-18 -3.000000e-02 -1.643300e-02
      vertex  2.599000e-02 -3.000000e-02 -2.500000e-02
      vertex  2.599000e-02 -3.000000e-02 -1.643300e-02
    endloop
  endfacet
  facet normal  1.000000e+00  -0.000000e+00  0.000000e+00
    outer loop
      vertex  2.599000e-02  2.791091e-02 -1.300000e-02
      vertex  2.599000e-02 -2.791091e-02 -1.300000e-02
      vertex  2.599000e-02  3.000000e-02 -1.643300e-02
    endloop
  endfacet
  facet normal  1.000000e+00  0.000000e+00  0.000000e+00
    outer loop
      vertex  2.599000e-02  3.000000e-02 -1.643300e-02
      vertex  2.599000e-02 -2.791091e-02 -1.300000e-02
      vertex  2.599000e-02 -3.000000e-02 -1.643300e-02
    endloop
  endfacet
  facet normal  1.000000e+00  -0.000000e+00  0.000000e+00
    outer loop
      vertex  2.599000e-02  3.000000e-02 -1.643300e-02
      vertex  2.599000e-02 -3.000000e-02 -1.643300e-02
      vertex  2.599000e-02  3.000000e-02 -2.500000e-02
    endloop
  endfacet
  facet normal  1.000000e+00  0.000000e+00  0.000000e+00
    outer loop
      vertex  2.599000e-02  3.000000e-02 -2.500000e-02
      vertex  2.599000e-02 -3.000000e-02 -1.643300e-02
      vertex  2.599000e-02 -3.000000e-02 -2.500000e-02
    endloop
  endfacet
  facet normal  0.000000e+00  1.000000e+00  0.000000e+00
    outer loop
      vertex  3.552714e-18  3.000000e-02 -2.500000e-02
      vertex  3.552714e-18  3.000000e-02 -1.643300e-02
      vertex  2.599000e-02  3.000000e-02 -2.500000e-02
    endloop
  endfacet
  facet normal  0.000000e+00  1.000000e+00  -0.000000e+00
    outer loop
      vertex  2.599000e-02  3.000000e-02 -2.500000e-02
      vertex  3.552714e-18  3.000000e-02 -1.643300e-02
      vertex  2.599000e-02  3.000000e-02 -1.643300e-02
    endloop
  endfacet
  facet normal  0.000000e+00  8.542609e-01  5.198447e-01
    outer loop
      vertex  3.330000e-03  2.027384e-02 -4.500000e-04
      vertex  9.690000e-03  2.027384e-02 -4.500000e-04
      vertex  3.330000e-03  2.760665e-02 -1.250000e-02
    endloop
  endfacet
  facet normal  -0.000000e+00  8.542609e-01  5.198447e-01
    outer loop
      vertex  3.330000e-03  2.760665e-02 -1.250000e-02
      vertex  9.690000e-03  2.027384e-02 -4.500000e-04
      vertex  9.690000e-03  2.760665e-02 -1.250000e-02
    endloop
  endfacet
  facet normal  0.000000e+00  8.542609e-01  5.198446e-01
    outer loop
      vertex  3.330000e-03  2.760665e-02 -1.250000e-02
      vertex  9.690000e-03  2.760665e-02 -1.250000e-02
      vertex  2.599000e-02  3.000000e-02 -1.643300e-02
    endloop
  endfacet
  facet normal -3.326080e-08  8.542609e-01  5.198444e-01
    outer loop
      vertex  2.599000e-02  3.000000e-02 -1.643300e-02
      vertex  9.690000e-03  2.760665e-02 -1.250000e-02
      vertex  1.799000e-02  2.791091e-02 -1.300000e-02
    endloop
  endfacet
  facet normal  -0.000000e+00  8.542608e-01  5.198445e-01
    outer loop
      vertex  2.599000e-02  3.000000e-02 -1.643300e-02
      vertex  1.799000e-02  2.791091e-02 -1.300000e-02
      vertex  2.599000e-02  2.791091e-02 -1.300000e-02
    endloop
  endfacet
  facet normal  0.000000e+00  8.542608e-01  5.198447e-01
    outer loop
      vertex  9.990000e-03  2.027384e-02 -4.500000e-04
      vertex  1.799000e-02  2.027384e-02 -4.500000e-04
      vertex  9.990000e-03  2.760665e-02 -1.250000e-02
    endloop
  endfacet
  facet normal -1.825742e-08  8.542607e-01  5.198447e-01
    outer loop
      vertex  9.990000e-03  2.760665e-02 -1.250000e-02
      vertex  1.799000e-02  2.027384e-02 -4.500000e-04
      vertex  1.799000e-02  2.791091e-02 -1.300000e-02
    endloop
  endfacet
  facet normal  0.000000e+00  8.542609e-01  5.198445e-01
    outer loop
      vertex  9.990000e-03  2.760665e-02 -1.250000e-02
      vertex  1.799000e-02  2.791091e-02 -1.300000e-02
      vertex  9.690000e-03  2.760665e-02 -1.250000e-02
    endloop
  endfacet
  facet normal  0.000000e+00  8.542597e-01  5.198467e-01
    outer loop
      vertex  3.330000e-03  2.760665e-02 -1.250000e-02
      vertex  2.599000e-02  3.000000e-02 -1.643300e-02
      vertex  3.030000e-03  2.760665e-02 -1.250000e-02
    endloop
  endfacet
  facet normal  0.000000e+00  8.542609e-01  5.198446e-01
    outer loop
      vertex  3.030000e-03  2.760665e-02 -1.250000e-02
      vertex  2.599000e-02  3.000000e-02 -1.643300e-02
      vertex  3.552714e-18  3.000000e-02 -1.643300e-02
    endloop
  endfacet
  facet normal -1.785052e-07  8.542607e-01  5.198447e-01
    outer loop
      vertex  3.030000e-03  2.760665e-02 -1.250000e-02
      vertex  3.552714e-18  3.000000e-02 -1.643300e-02
      vertex  3.030000e-03  2.027384e-02 -4.500000e-04
    endloop
  endfacet
  facet normal  0.000000e+00  8.542608e-01  5.198446e-01
    outer loop
      vertex  3.030000e-03  2.027384e-02 -4.500000e-04
      vertex  3.552714e-18  3.000000e-02 -1.643300e-02
      vertex  0.000000e+00  2.027384e-02 -4.500000e-04
    endloop
  endfacet
  facet normal  0.000000e+00  0.000000e+00  1.000000e+00
    outer loop
      vertex  1.799000e-02  2.791091e-02 -1.300000e-02
      vertex  1.799000e-02 -2.791091e-02 -1.300000e-02
      vertex  2.599000e-02  2.791091e-02 -1.300000e-02
    endloop
  endfacet
  facet normal  0.000000e+00  0.000000e+00  1.000000e+00
    outer loop
      vertex  2.599000e-02  2.791091e-02 -1.300000e-02
      vertex  1.799000e-02 -2.791091e-02 -1.300000e-02
      vertex  2.599000e-02 -2.791091e-02 -1.300000e-02
    endloop
  endfacet
  facet normal  0.000000e+00 -8.542609e-01  5.198447e-01
    outer loop
      vertex  9.690000e-03 -2.027384e-02 -4.500000e-04
      vertex  3.330000e-03 -2.027384e-02 -4.500000e-04
      vertex  9.690000e-03 -2.760665e-02 -1.250000e-02
    endloop
  endfacet
  facet normal  0.000000e+00 -8.542609e-01  5.198447e-01
    outer loop
      vertex  9.690000e-03 -2.760665e-02 -1.250000e-02
      vertex  3.330000e-03 -2.027384e-02 -4.500000e-04
      vertex  3.330000e-03 -2.760665e-02 -1.250000e-02
    endloop
  endfacet
  facet normal  0.000000e+00 -8.542607e-01  5.198449e-01
    outer loop
      vertex  9.690000e-03 -2.760665e-02 -1.250000e-02
      vertex  3.330000e-03 -2.760665e-02 -1.250000e-02
      vertex  1.799000e-02 -2.791091e-02 -1.300000e-02
    endloop
  endfacet
  facet normal -1.978343e-08 -8.542609e-01  5.198445e-01
    outer loop
      vertex  1.799000e-02 -2.791091e-02 -1.300000e-02
      vertex  3.330000e-03 -2.760665e-02 -1.250000e-02
      vertex  2.599000e-02 -3.000000e-02 -1.643300e-02
    endloop
  endfacet
  facet normal  0.000000e+00 -8.542608e-01  5.198445e-01
    outer loop
      vertex  1.799000e-02 -2.791091e-02 -1.300000e-02
      vertex  2.599000e-02 -3.000000e-02 -1.643300e-02
      vertex  2.599000e-02 -2.791091e-02 -1.300000e-02
    endloop
  endfacet
  facet normal  1.936572e-09 -8.542607e-01  5.198447e-01
    outer loop
      vertex  1.799000e-02 -2.027384e-02 -4.500001e-04
      vertex  9.990000e-03 -2.027384e-02 -4.500000e-04
      vertex  1.799000e-02 -2.791091e-02 -1.300000e-02
    endloop
  endfacet
  facet normal -1.901499e-08 -8.542608e-01  5.198447e-01
    outer loop
      vertex  1.799000e-02 -2.791091e-02 -1.300000e-02
      vertex  9.990000e-03 -2.027384e-02 -4.500000e-04
      vertex  9.990000e-03 -2.760665e-02 -1.250000e-02
    endloop
  endfacet
  facet normal  0.000000e+00 -8.542607e-01  5.198449e-01
    outer loop
      vertex  1.799000e-02 -2.791091e-02 -1.300000e-02
      vertex  9.990000e-03 -2.760665e-02 -1.250000e-02
      vertex  9.690000e-03 -2.760665e-02 -1.250000e-02
    endloop
  endfacet
  facet normal  0.000000e+00 -8.542609e-01  5.198445e-01
    outer loop
      vertex  2.599000e-02 -3.000000e-02 -1.643300e-02
      vertex  3.330000e-03 -2.760665e-02 -1.250000e-02
      vertex  3.552714e-18 -3.000000e-02 -1.643300e-02
    endloop
  endfacet
  facet normal  0.000000e+00 -8.542609e-01  5.198445e-01
    outer loop
      vertex  3.552714e-18 -3.000000e-02 -1.643300e-02
      vertex  3.330000e-03 -2.760665e-02 -1.250000e-02
      vertex  3.030000e-03 -2.760665e-02 -1.250000e-02
    endloop
  endfacet
  facet normal -1.345797e-07 -8.542608e-01  5.198446e-01
    outer loop
      vertex  3.552714e-18 -3.000000e-02 -1.643300e-02
      vertex  3.030000e-03 -2.760665e-02 -1.250000e-02
      vertex  0.000000e+00 -2.027384e-02 -4.500000e-04
    endloop
  endfacet
  facet normal  0.000000e+00 -8.542607e-01  5.198447e-01
    outer loop
      vertex  0.000000e+00 -2.027384e-02 -4.500000e-04
      vertex  3.030000e-03 -2.760665e-02 -1.250000e-02
      vertex  3.030000e-03 -2.027384e-02 -4.500000e-04
    endloop
  endfacet
  facet normal  1.000000e+00  0.000000e+00  0.000000e+00
    outer loop
      vertex  1.799000e-02 -2.791091e-02 -1.300000e-02
      vertex  1.799000e-02  2.791091e-02 -1.300000e-02
      vertex  1.799000e-02  1.786965e-02 -1.250000e-02
    endloop
  endfacet
  facet normal  1.000000e+00  0.000000e+00  0.000000e+00
    outer loop
      vertex  1.799000e-02 -2.791091e-02 -1.300000e-02
      vertex  1.799000e-02  1.786965e-02 -1.250000e-02
      vertex  1.799000e-02  1.751847e-02 -1.250000e-02
    endloop
  endfacet
  facet normal  9.999999e-01  0.000000e+00  0.000000e+00
    outer loop
      vertex  1.799000e-02 -2.791091e-02 -1.300000e-02
      vertex  1.799000e-02  1.751847e-02 -1.250000e-02
      vertex  1.799000e-02 -7.430284e-03 -1.250000e-02
    endloop
  endfacet
  facet normal  1.000000e+00  0.000000e+00  0.000000e+00
    outer loop
      vertex  1.799000e-02 -2.791091e-02 -1.300000e-02
      vertex  1.799000e-02 -7.430284e-03 -1.250000e-02
      vertex  1.799000e-02 -7.781465e-03 -1.250000e-02
    endloop
  endfacet
  facet normal  1.000000e+00  0.000000e+00  0.000000e+00
    outer loop
      vertex  1.799000e-02 -2.791091e-02 -1.300000e-02
      vertex  1.799000e-02 -7.781465e-03 -1.250000e-02
      vertex  1.799000e-02 -1.751847e-02 -1.250000e-02
    endloop
  endfacet
  facet normal  1.000000e+00  0.000000e+00  0.000000e+00
    outer loop
      vertex  1.799000e-02 -2.791091e-02 -1.300000e-02
      vertex  1.799000e-02 -1.751847e-02 -1.250000e-02
      vertex  1.799000e-02 -1.786965e-02 -1.250000e-02
    endloop
  endfacet
  facet normal  1.000000e+00  0.000000e+00  -0.000000e+00
    outer loop
      vertex  1.799000e-02 -2.791091e-02 -1.300000e-02
      vertex  1.799000e-02 -1.786965e-02 -1.250000e-02
      vertex  1.799000e-02 -1.053684e-02 -4.500000e-04
    endloop
  endfacet
  facet normal  9.999999e-01  0.000000e+00  0.000000e+00
    outer loop
      vertex  1.799000e-02 -2.791091e-02 -1.300000e-02
      vertex  1.799000e-02 -1.053684e-02 -4.500000e-04
      vertex  1.799000e-02 -2.027384e-02 -4.500001e-04
    endloop
  endfacet
  facet normal  1.000000e+00  0.000000e+00  0.000000e+00
    outer loop
      vertex  1.799000e-02 -1.751847e-02 -1.250000e-02
      vertex  1.799000e-02 -7.781465e-03 -1.250000e-02
      vertex  1.799000e-02 -1.018566e-02 -4.500000e-04
    endloop
  endfacet
  facet normal  1.000000e+00  -0.000000e+00  0.000000e+00
    outer loop
      vertex  1.799000e-02 -1.018566e-02 -4.500000e-04
      vertex  1.799000e-02 -7.781465e-03 -1.250000e-02
      vertex  1.799000e-02 -4.486584e-04 -4.500000e-04
    endloop
  endfacet
  facet normal  1.000000e+00  0.000000e+00  0.000000e+00
    outer loop
      vertex  1.799000e-02  1.786965e-02 -1.250000e-02
      vertex  1.799000e-02  2.791091e-02 -1.300000e-02
      vertex  1.799000e-02  1.053684e-02 -4.500000e-04
    endloop
  endfacet
  facet normal  9.999999e-01  -0.000000e+00  0.000000e+00
    outer loop
      vertex  1.799000e-02  1.053684e-02 -4.500000e-04
      vertex  1.799000e-02  2.791091e-02 -1.300000e-02
      vertex  1.799000e-02  2.027384e-02 -4.500000e-04
    endloop
  endfacet
  facet normal  1.000000e+00  0.000000e+00  0.000000e+00
    outer loop
      vertex  1.799000e-02 -7.430284e-03 -1.250000e-02
      vertex  1.799000e-02  1.751847e-02 -1.250000e-02
      vertex  1.799000e-02 -9.747760e-05 -4.500000e-04
    endloop
  endfacet
  facet normal  1.000000e+00  -0.000000e+00  0.000000e+00
    outer loop
      vertex  1.799000e-02 -9.747760e-05 -4.500000e-04
      vertex  1.799000e-02  1.751847e-02 -1.250000e-02
      vertex  1.799000e-02  1.018566e-02 -4.500000e-04
    endloop
  endfacet
endsolid module_walls

